<?xml version="1.0" standalone="no"?>
<!DOCTYPE svg PUBLIC "-//W3C//DTD SVG 20010904//EN"
 "http://www.w3.org/TR/2001/REC-SVG-20010904/DTD/svg10.dtd">
<svg version="1.0" xmlns="http://www.w3.org/2000/svg"
 width="602.000000pt" height="396.000000pt" viewBox="0 0 602.000000 396.000000"
 preserveAspectRatio="xMidYMid meet">

<g transform="translate(0.000000,396.000000) scale(0.100000,-0.100000)"
fill="#000000" stroke="none">
<path d="M0 1980 l0 -1980 3010 0 3010 0 0 1980 0 1980 -3010 0 -3010 0 0
-1980z m755 1961 c33 -6 52 -5 57 2 4 6 30 7 75 3 96 -11 96 -11 118 -25 19
-11 18 -12 -7 -8 -16 2 -28 0 -28 -4 0 -5 8 -9 18 -9 9 0 27 -3 39 -6 14 -4
21 -1 20 8 -1 7 3 13 8 13 6 0 9 -5 9 -12 -1 -6 4 -14 11 -17 9 -3 11 2 7 16
-4 17 -2 20 11 15 8 -3 32 -9 51 -13 36 -6 46 -18 24 -27 -7 -3 -3 -6 10 -6
13 -1 22 5 22 14 0 8 5 15 10 15 6 0 10 -5 10 -11 0 -5 4 -8 9 -5 14 9 131
-15 125 -25 -3 -6 -13 -8 -22 -5 -10 2 -42 7 -72 10 -46 4 -49 4 -20 -4 19 -5
67 -14 105 -19 59 -8 236 -38 735 -125 l65 -11 4 -40 c3 -36 -7 -344 -25 -777
-6 -146 -7 -148 -30 -148 -12 0 -26 -5 -29 -10 -4 -6 -9 -9 -13 -6 -7 4 -51 7
-382 26 -396 24 -471 27 -610 29 -115 1 -151 -2 -174 -14 -26 -14 -68 -15
-295 -12 -146 3 -231 3 -188 0 42 -2 77 -8 77 -13 0 -6 11 -10 25 -10 30 0 33
-15 5 -30 -16 -9 -20 -8 -21 7 -1 15 -2 15 -6 2 -2 -9 -15 -21 -29 -28 -19 -8
-24 -8 -18 1 5 8 2 9 -12 4 -34 -14 -104 -16 -104 -3 0 8 -3 8 -8 2 -4 -6 -70
-11 -154 -12 l-148 -1 0 449 c0 247 4 449 9 449 4 0 13 -42 18 -92 l10 -93 2
85 c3 97 12 136 30 132 7 -1 9 2 6 8 -4 6 -4 21 -1 34 5 19 11 21 41 18 19 -2
38 -8 41 -13 7 -11 24 -12 24 -1 0 12 -49 34 -60 27 -4 -3 -17 -2 -29 3 -24 9
-16 26 18 37 15 5 21 4 17 -3 -4 -6 2 -11 11 -11 52 -1 90 -7 107 -17 26 -16
11 -36 -21 -28 -18 5 -24 3 -21 -6 2 -7 22 -14 43 -16 28 -2 36 -1 25 6 -17
11 -5 13 27 4 13 -4 20 -11 16 -17 -4 -6 2 -8 15 -5 12 4 22 3 22 -1 0 -8 38
-28 54 -29 5 0 13 -6 17 -14 6 -9 9 -6 10 12 1 14 3 35 4 48 12 117 15 195 7
205 -6 8 -6 29 1 60 l12 47 120 -1 c66 0 143 -4 170 -8z m856 -5 c41 -8 139
-26 219 -41 147 -26 311 -62 318 -70 3 -2 2 -10 -1 -18 -4 -12 -22 -11 -114 4
-59 9 -115 20 -123 22 -8 3 -31 8 -50 10 -19 3 -114 19 -210 37 -96 17 -200
36 -230 41 -138 25 -139 27 -9 28 73 1 158 -5 200 -13z m2659 5 c-26 -15 -93
-23 -85 -12 9 16 -21 13 -34 -3 -7 -8 -22 -12 -34 -9 -18 4 -20 3 -7 -7 13
-10 13 -11 -2 -7 -9 3 -29 2 -45 -3 -15 -5 -77 -19 -138 -30 -60 -11 -120 -23
-132 -25 -18 -4 -23 -12 -23 -39 l0 -34 -152 -6 c-84 -3 -315 -8 -513 -11
-198 -3 -476 -8 -619 -11 l-258 -6 7 91 c7 91 7 91 -16 91 -13 1 -53 7 -89 14
-56 12 91 14 1045 14 611 1 1103 -3 1095 -7z m800 1 c0 -4 -12 -9 -27 -10 -16
-1 -39 -4 -53 -7 -14 -3 -47 -8 -75 -11 -27 -3 -81 -13 -120 -21 -38 -8 -88
-16 -110 -19 -22 -2 -63 -8 -90 -13 -46 -9 -65 -7 -54 3 5 5 157 32 289 51 58
9 119 20 135 24 38 12 105 13 105 3z m-4945 -22 c0 -22 -39 -19 -43 3 -3 15 1
18 20 15 12 -2 23 -10 23 -18z m78 6 c8 3 18 1 22 -5 3 -6 24 -11 46 -11 32 0
39 -3 39 -20 0 -17 -5 -19 -32 -16 -79 11 -138 28 -138 41 0 17 22 25 36 13 6
-4 18 -6 27 -2z m-83 -66 c0 -11 -7 -20 -15 -20 -8 0 -15 2 -15 4 0 2 -3 11
-6 20 -4 12 0 16 15 16 14 0 21 -6 21 -20z m113 -5 c27 -4 47 -12 47 -20 0 -9
-13 -11 -47 -7 -60 6 -93 18 -93 33 0 7 9 9 23 6 12 -3 43 -9 70 -12z m4827
-9 c-9 -8 -67 -21 -138 -31 -68 -9 -130 -19 -138 -22 -8 -3 -14 0 -14 5 0 6
21 14 48 17 39 6 236 40 252 44 2 0 -2 -5 -10 -13z m-640 -6 c0 -5 -9 -10 -21
-10 -11 0 -17 5 -14 10 3 6 13 10 21 10 8 0 14 -4 14 -10z m-60 -10 c0 -5 -6
-10 -12 -10 -7 0 -23 -3 -35 -6 -13 -4 -23 -2 -23 4 0 11 20 19 53 21 9 0 17
-3 17 -9z m-4239 -10 c13 0 11 -27 -2 -36 -13 -8 -32 9 -35 32 -2 10 3 14 13
10 8 -3 19 -6 24 -6z m4139 -10 c0 -5 -6 -10 -14 -10 -8 0 -18 5 -21 10 -3 6
3 10 14 10 12 0 21 -4 21 -10z m-3968 -19 c41 -8 50 -31 11 -30 -60 2 -157 25
-161 37 -3 10 9 12 57 6 34 -4 76 -10 93 -13z m1688 9 c0 -5 -4 -10 -10 -10
-5 0 -10 5 -10 10 0 6 5 10 10 10 6 0 10 -4 10 -10z m2230 6 c0 -2 -7 -6 -15
-10 -8 -3 -15 -1 -15 4 0 6 7 10 15 10 8 0 15 -2 15 -4z m280 -5 c0 -7 -69
-22 -215 -47 -82 -14 -97 -14 -93 -2 2 6 15 12 28 14 14 2 77 12 140 23 140
23 140 23 140 12z m270 -1 c0 -5 -7 -10 -15 -10 -8 0 -15 5 -15 10 0 6 7 10
15 10 8 0 15 -4 15 -10z m-610 -10 c-19 -13 -30 -13 -30 0 0 6 10 10 23 10 18
0 19 -2 7 -10z m534 -10 c-21 -8 -87 -17 -174 -25 -83 -7 -26 12 85 28 87 13
129 11 89 -3z m-2584 0 c0 -5 -7 -10 -15 -10 -8 0 -15 5 -15 10 0 6 7 10 15
10 8 0 15 -4 15 -10z m1990 0 c0 -5 -16 -10 -36 -10 -21 0 -33 4 -29 10 3 6
19 10 36 10 16 0 29 -4 29 -10z m-90 -10 c0 -5 -9 -10 -21 -10 -11 0 -17 5
-14 10 3 6 13 10 21 10 8 0 14 -4 14 -10z m-3886 -6 c22 -9 20 -31 -4 -37 -11
-3 -20 -2 -21 1 0 4 -2 15 -4 25 -3 18 4 21 29 11z m3831 -4 c-3 -5 -10 -10
-16 -10 -5 0 -9 5 -9 10 0 6 7 10 16 10 8 0 12 -4 9 -10z m-3715 -11 c0 -4 10
-7 23 -7 57 0 139 -21 134 -36 -4 -12 -77 -15 -77 -3 0 5 -16 7 -34 6 -19 -2
-38 0 -42 4 -4 4 -18 7 -31 7 -30 0 -65 18 -58 30 6 9 85 8 85 -1z m4195 -9
c-11 -5 -38 -8 -60 -8 -38 0 -39 1 -10 8 17 4 44 8 60 8 25 1 27 -1 10 -8z
m-819 -15 c14 -13 14 -16 0 -21 -9 -3 -16 -11 -16 -17 0 -8 4 -7 12 1 7 7 16
8 23 2 6 -5 31 -10 55 -12 l45 -3 4 -85 c1 -47 -2 -186 -8 -310 -7 -124 -14
-272 -17 -330 -3 -57 -6 -105 -7 -106 -1 -1 -99 -5 -217 -9 -118 -4 -231 -8
-250 -10 -19 -2 -69 -4 -110 -5 -54 -2 -68 -4 -50 -10 22 -7 22 -8 5 -10 -11
-2 -40 -2 -64 0 -29 1 -41 -2 -37 -9 4 -6 1 -11 -7 -11 -25 0 -28 28 -4 33 12
2 -4 5 -35 6 -47 1 -56 -2 -52 -14 7 -17 3 -18 -20 -9 -9 3 -14 9 -12 13 3 4
-38 5 -90 3 -52 -3 -94 0 -94 5 0 5 -71 7 -165 5 l-165 -4 -9 24 c-4 13 -11
95 -15 183 -12 284 -36 550 -51 575 -2 4 5 17 16 28 16 18 31 22 85 22 42 0
63 4 59 10 -4 6 -11 7 -17 4 -7 -4 -8 -2 -4 5 5 7 20 9 42 5 33 -6 49 8 22 19
-7 3 -4 6 7 6 17 1 17 3 5 11 -13 9 -13 10 0 11 65 6 459 15 758 17 314 2 365
0 378 -13z m414 -5 c-20 -13 -73 -13 -65 0 3 6 23 10 43 10 28 0 33 -3 22 -10z
m286 3 c-7 -8 -25 -11 -70 -13 -45 -3 -54 1 -26 10 31 10 106 12 96 3z m-425
-12 c6 11 11 11 20 2 15 -15 3 -47 -15 -40 -8 3 -17 1 -20 -6 -2 -7 -4 4 -4
23 0 19 2 29 5 21 5 -11 7 -11 14 0z m545 -17 c31 3 60 8 65 12 5 3 9 1 9 -4
0 -11 -126 -33 -146 -25 -8 3 -14 12 -14 20 0 13 3 13 15 3 10 -8 33 -10 71
-6z m304 12 c0 -11 -19 -15 -25 -6 -3 5 1 10 9 10 9 0 16 -2 16 -4z m-660 -15
c0 -6 -21 -13 -47 -17 -27 -3 -56 -8 -65 -10 -26 -4 -22 15 5 21 70 15 107 17
107 6z m610 5 c0 -2 -9 -6 -20 -9 -11 -3 -20 -1 -20 4 0 5 9 9 20 9 11 0 20
-2 20 -4z m-120 -15 c0 -5 -9 -11 -20 -14 -11 -3 -20 -1 -20 3 0 5 8 11 18 13
9 3 18 5 20 6 1 0 2 -3 2 -8z m55 -1 c-27 -12 -35 -12 -35 0 0 6 12 10 28 9
24 0 25 -1 7 -9z m1088 -10 c47 -8 84 -20 96 -31 11 -11 24 -19 29 -19 5 0 17
-9 27 -20 10 -11 27 -20 37 -20 11 0 22 -9 25 -20 3 -10 14 -22 24 -25 10 -4
22 -17 25 -31 3 -13 10 -21 15 -18 5 3 9 -130 9 -315 0 -207 -4 -321 -10 -321
-19 0 -25 -2 -45 -16 -11 -8 -31 -14 -45 -15 -22 0 -23 -1 -5 -8 27 -11 -28
-19 -211 -31 -80 -5 -151 -13 -157 -17 -16 -10 -506 -12 -541 -2 -16 5 -33 13
-36 19 -7 11 -97 1 -145 -15 -16 -6 -17 -5 -5 4 11 8 -4 11 -61 11 -42 0 -91
-3 -109 -6 -27 -6 -31 -11 -27 -30 3 -18 0 -24 -14 -24 -23 0 -45 36 -26 43 7
3 5 6 -5 6 -13 1 -18 -7 -18 -24 0 -27 0 -27 -72 -30 -46 -3 -67 12 -52 36 3
5 -4 9 -15 9 -13 0 -21 -8 -23 -22 -2 -13 -10 -23 -18 -23 -9 0 -15 9 -14 23
1 30 -24 28 -36 -3 -11 -30 -30 -33 -37 -5 -3 11 -11 20 -18 20 -7 0 -15 -9
-18 -20 -3 -11 -13 -20 -22 -20 -12 0 -16 6 -12 19 4 16 0 19 -25 19 -17 -1
-24 -4 -17 -9 14 -8 5 -39 -12 -39 -6 0 -13 9 -16 20 -4 14 -14 20 -32 20 -16
0 -21 -3 -14 -8 7 -4 9 -13 4 -21 -10 -16 -31 -6 -31 15 0 8 -9 14 -20 14 -13
0 -20 -7 -20 -20 0 -11 -5 -20 -11 -20 -6 0 -9 8 -7 18 4 16 -1 18 -41 18 -36
-1 -46 3 -49 17 -3 14 4 17 32 17 l36 0 -2 43 c-3 41 -2 42 30 45 18 2 32 9
32 16 0 15 142 32 162 20 11 -7 -46 -36 -66 -33 -6 1 -19 -1 -29 -6 -12 -5
-22 -2 -32 11 -13 18 -14 18 -8 -3 3 -14 13 -23 24 -23 14 0 19 -7 19 -25 0
-14 5 -25 10 -25 12 0 12 2 0 35 -10 26 -10 26 35 23 34 -2 45 -7 45 -20 0
-12 -6 -15 -22 -10 -13 3 -26 9 -29 15 -4 5 -9 5 -13 -1 -9 -14 19 -28 72 -37
38 -6 42 -5 42 14 0 12 5 21 11 21 6 0 9 -7 5 -15 -6 -17 -4 -17 99 -15 79 1
337 25 403 37 23 5 42 12 42 18 -1 5 6 12 16 15 16 6 16 7 1 13 -9 3 -17 2
-17 -3 0 -6 -7 -10 -15 -10 -8 0 -14 5 -12 12 1 8 -13 12 -45 12 -54 -1 -68
20 -17 24 49 4 95 34 83 54 -10 15 -23 8 -18 -9 2 -10 -1 -8 -7 4 -10 19 -18
22 -48 18 -109 -13 -161 -15 -161 -5 0 9 12 12 77 15 12 0 26 5 30 9 4 5 -14
6 -40 4 -26 -3 -50 -1 -53 3 -3 5 -4 9 -2 10 2 0 39 3 83 5 44 3 85 10 91 15
6 5 14 6 17 2 4 -3 7 -1 7 7 0 10 3 10 17 -1 14 -12 16 -12 11 1 -4 11 -21 15
-76 15 -67 0 -72 1 -72 21 0 25 17 34 68 34 42 1 130 38 97 41 -11 1 -27 1
-35 0 -8 -1 -49 -3 -90 -5 -41 -2 -83 -7 -92 -11 -10 -4 -26 -4 -35 0 -13 6
-6 10 27 16 25 5 50 7 57 4 7 -2 15 0 18 6 4 5 12 6 18 2 7 -4 6 0 -2 10 -7 9
-10 17 -5 18 5 1 25 2 44 4 39 4 71 9 113 20 21 6 25 10 15 16 -10 7 -10 9 0
9 7 0 10 5 7 10 -3 6 -1 10 4 10 6 0 11 4 11 8 0 8 -41 7 -115 -2 -22 -3 -73
-8 -112 -12 -62 -5 -73 -3 -73 10 0 18 -28 21 -50 5 -12 -9 -11 -10 7 -6 13 3
25 2 28 -3 6 -9 -75 -23 -84 -14 -3 4 0 9 7 11 6 3 12 11 12 19 0 8 10 14 25
14 17 0 25 6 26 18 1 15 2 16 6 0 2 -10 10 -15 19 -11 11 4 12 9 3 19 -9 11
-6 14 16 14 18 0 26 -4 22 -13 -3 -8 1 -14 8 -14 7 0 11 6 8 12 -2 7 7 15 21
19 14 3 26 13 26 21 0 11 12 15 48 14 l47 -1 -40 -13 c-22 -8 -34 -14 -27 -14
23 -2 12 -20 -15 -24 -16 -2 -9 -3 15 -2 29 2 45 -2 49 -10 2 -8 14 -12 25
-10 11 3 38 5 59 7 26 1 39 7 39 16 0 12 3 12 16 1 13 -10 17 -10 24 1 4 7 6
20 3 28 -5 11 -1 13 15 7 12 -3 22 -2 22 3 0 14 -26 22 -58 17 -73 -11 -122
-14 -122 -7 0 9 137 35 177 34 13 0 20 4 17 9 -3 5 2 9 10 9 8 0 20 9 26 20 6
11 18 20 26 20 10 0 14 6 10 15 -4 10 2 19 17 24 13 5 29 16 36 25 7 9 20 16
27 16 8 0 14 4 14 10 0 11 148 83 195 95 17 5 37 10 45 13 69 20 214 21 333 2z
m-1549 1 c3 -4 -16 -11 -42 -14 -26 -4 -58 -9 -72 -11 -14 -3 -43 -7 -65 -10
-37 -4 -38 -4 -21 10 11 8 34 14 50 14 38 1 109 11 115 16 8 7 30 4 35 -5z
m356 -7 c0 -2 -12 -4 -27 -4 -21 0 -24 3 -14 9 13 8 41 5 41 -5z m134 -4 c-15
-15 -74 -24 -74 -12 0 6 15 13 33 15 17 2 36 5 42 5 5 1 5 -2 -1 -8z m-224 -4
c0 -2 -9 -6 -20 -9 -11 -3 -20 -1 -20 4 0 5 9 9 20 9 11 0 20 -2 20 -4z m116
-18 c-9 -5 -26 -6 -39 -2 -21 7 -20 8 8 14 36 8 54 1 31 -12z m-72 4 c2 -4 -5
-9 -17 -9 -17 -2 -19 0 -7 7 18 12 18 12 24 2z m-300 -11 c3 -5 -13 -11 -37
-15 -100 -14 -152 -18 -147 -13 6 6 39 14 115 26 28 5 53 9 57 10 4 0 9 -3 12
-8z m256 -1 c0 -5 -12 -10 -27 -9 l-28 1 25 8 c14 4 26 8 28 9 1 1 2 -3 2 -9z
m-323 -46 c-11 -11 -93 -17 -82 -6 6 6 26 12 45 14 37 3 47 1 37 -8z m953 6
c-8 -5 -35 -9 -60 -9 -37 1 -41 2 -20 9 38 12 99 12 80 0z m-127 -17 c-7 -2
-21 -2 -30 0 -10 3 -4 5 12 5 17 0 24 -2 18 -5z m-803 -13 c0 -8 -19 -13 -85
-23 -5 -1 -12 3 -15 8 -3 6 15 13 40 16 25 3 48 7 53 7 4 1 7 -2 7 -8z m215 0
c3 -5 1 -10 -4 -10 -6 0 -11 5 -11 10 0 6 2 10 4 10 3 0 8 -4 11 -10z m475 6
c0 -2 -7 -7 -16 -10 -8 -3 -12 -2 -9 4 6 10 25 14 25 6z m-892 -29 c2 -10 -3
-17 -12 -17 -10 0 -16 9 -16 21 0 24 23 21 28 -4z m829 17 c-3 -3 -12 -4 -19
-1 -8 3 -5 6 6 6 11 1 17 -2 13 -5z m103 -17 c0 -10 -16 -14 -52 -14 -53 -1
-53 -1 -23 13 39 17 75 18 75 1z m-702 -12 c-3 -3 -30 -8 -59 -12 -38 -4 -51
-2 -44 5 6 6 30 12 55 14 47 3 57 2 48 -7z m586 -6 c-3 -6 -17 -9 -30 -6 -13
2 -24 1 -24 -3 0 -4 -14 -7 -30 -8 -17 0 -39 -4 -50 -7 -11 -3 -20 -2 -20 4 0
12 69 28 123 30 25 1 36 -3 31 -10z m-584 -27 c0 -5 -21 -9 -47 -11 -26 -1
-50 -4 -55 -7 -4 -3 -8 -1 -8 5 0 5 6 12 13 14 20 9 97 8 97 -1z m335 -2 c4
-6 -6 -10 -22 -9 -25 0 -26 1 -8 9 11 5 21 9 22 9 1 1 5 -3 8 -9z m35 6 c0 -3
-4 -8 -10 -11 -5 -3 -10 -1 -10 4 0 6 5 11 10 11 6 0 10 -2 10 -4z m485 -6
c-3 -5 -24 -10 -46 -10 -24 0 -38 4 -34 10 3 6 24 10 46 10 24 0 38 -4 34 -10z
m-975 -10 c0 -5 -4 -10 -10 -10 -5 0 -10 5 -10 10 0 6 5 10 10 10 6 0 10 -4
10 -10z m397 3 c-11 -10 -58 -13 -52 -2 4 5 18 9 32 9 15 0 23 -3 20 -7z m480
1 c-3 -3 -12 -4 -19 -1 -8 3 -5 6 6 6 11 1 17 -2 13 -5z m-997 -19 c0 -8 -4
-15 -10 -15 -5 0 -10 7 -10 15 0 8 5 15 10 15 6 0 10 -7 10 -15z m906 8 c-8
-8 -12 -9 -59 -11 -20 -2 -31 -8 -34 -22 -4 -13 -14 -20 -32 -21 -14 0 -34 -2
-43 -4 -38 -7 -193 -17 -188 -12 6 7 162 29 213 31 25 1 39 6 43 18 3 9 15 18
27 20 52 8 80 8 73 1z m47 0 c-7 -2 -19 -2 -25 0 -7 3 -2 5 12 5 14 0 19 -2
13 -5z m-698 -12 c-14 -12 -125 -23 -125 -12 0 11 33 17 95 20 22 0 35 -3 30
-8z m75 -1 c0 -5 -5 -10 -11 -10 -5 0 -7 5 -4 10 3 6 8 10 11 10 2 0 4 -4 4
-10z m460 0 c0 -5 -5 -10 -11 -10 -5 0 -7 5 -4 10 3 6 8 10 11 10 2 0 4 -4 4
-10z m-670 -10 c0 -5 -10 -10 -22 -10 -19 0 -20 2 -8 10 19 13 30 13 30 0z
m563 -7 c-7 -2 -19 -2 -25 0 -7 3 -2 5 12 5 14 0 19 -2 13 -5z m-488 -22 c-15
-13 -80 -20 -95 -11 -10 6 -8 9 6 13 34 8 98 7 89 -2z m322 3 c-3 -3 -12 -4
-19 -1 -8 3 -5 6 6 6 11 1 17 -2 13 -5z m-2178 -412 c6 -67 11 -154 11 -192
l0 -70 -33 0 -32 0 1 68 c7 305 17 551 22 572 4 14 10 -37 14 -115 4 -77 12
-195 17 -263z m1671 384 c0 -16 -18 -31 -27 -22 -8 8 5 36 17 36 5 0 10 -6 10
-14z m529 0 c-11 -9 -89 -15 -89 -7 0 6 19 11 43 13 41 3 54 1 46 -6z m-399
-6 c0 -5 -5 -10 -11 -10 -5 0 -7 5 -4 10 3 6 8 10 11 10 2 0 4 -4 4 -10z m100
3 c-14 -2 -40 -8 -57 -13 -26 -7 -33 -5 -33 6 0 11 14 14 58 13 31 -1 46 -4
32 -6z m200 -3 c0 -5 -5 -10 -11 -10 -5 0 -7 5 -4 10 3 6 8 10 11 10 2 0 4 -4
4 -10z m-220 -30 c0 -5 -15 -10 -32 -10 -18 0 -43 -3 -55 -6 -13 -4 -23 -2
-23 4 0 6 12 13 28 15 53 8 82 7 82 -3z m513 3 c-7 -2 -19 -2 -25 0 -7 3 -2 5
12 5 14 0 19 -2 13 -5z m-356 -140 c-2 -27 -3 -5 -3 47 0 52 1 74 3 48 2 -27
2 -69 0 -95z m306 130 c-7 -2 -21 -2 -30 0 -10 3 -4 5 12 5 17 0 24 -2 18 -5z
m-138 -13 c-3 -5 -11 -10 -16 -10 -6 0 -7 5 -4 10 3 6 11 10 16 10 6 0 7 -4 4
-10z m-532 -26 c-5 -15 -16 -18 -26 -8 -10 11 4 33 18 28 8 -3 11 -12 8 -20z
m242 18 c-12 -12 -125 -22 -125 -12 0 12 13 15 78 18 37 2 53 0 47 -6z m359
-11 c-12 -11 -129 -22 -118 -11 5 5 27 10 49 12 22 2 49 4 59 5 10 1 15 -2 10
-6z m-354 -20 c0 -5 -10 -12 -22 -14 -20 -4 -19 -4 4 -6 22 -1 27 -5 25 -23
-3 -31 -9 -34 -70 -37 -28 -1 -59 -4 -69 -7 -9 -3 -19 0 -23 6 -3 5 2 10 12
10 10 0 14 4 8 8 -5 4 -16 17 -22 29 -12 20 -11 23 10 28 66 14 147 18 147 6z
m80 -11 c0 -5 -4 -10 -10 -10 -5 0 -10 5 -10 10 0 6 5 10 10 10 6 0 10 -4 10
-10z m198 -7 c-10 -2 -18 -9 -18 -14 0 -6 -4 -7 -10 -4 -6 3 -7 -1 -4 -9 3 -9
1 -16 -5 -16 -11 0 -16 32 -7 41 3 3 18 5 33 6 15 0 20 -1 11 -4z m-106 -39
c2 -19 0 -37 -4 -40 -4 -3 -8 13 -8 35 0 51 6 53 12 5z m45 30 c-3 -3 -12 -4
-19 -1 -8 3 -5 6 6 6 11 1 17 -2 13 -5z m-567 -179 c14 -125 15 -140 11 -250
-4 -79 -5 -85 -11 -45 -5 26 -6 -12 -4 -90 l3 -135 -30 65 -31 65 12 230 c14
262 16 292 20 320 4 28 17 -43 30 -160z m430 171 c0 -3 -4 -8 -10 -11 -5 -3
-10 -1 -10 4 0 6 5 11 10 11 6 0 10 -2 10 -4z m207 -22 c-9 -9 -28 6 -21 18 4
6 10 6 17 -1 6 -6 8 -13 4 -17z m-70 0 c-3 -3 -12 -4 -19 -1 -8 3 -5 6 6 6 11
1 17 -2 13 -5z m-139 -49 c0 -14 -3 -25 -7 -25 -4 0 -8 11 -9 25 -1 14 2 25 7
25 5 0 9 -11 9 -25z m-128 5 c0 -9 -21 -14 -56 -13 -6 0 -9 -8 -7 -18 3 -11 0
-19 -6 -19 -6 0 -11 4 -11 9 0 5 -3 16 -6 24 -6 16 11 24 59 26 15 0 27 -3 27
-9z m540 -10 c0 -5 -9 -10 -21 -10 -11 0 -17 5 -14 10 3 6 13 10 21 10 8 0 14
-4 14 -10z m-54 -7 c-11 -11 -67 -12 -60 -2 3 5 19 9 36 9 17 0 28 -3 24 -7z
m-428 -8 c-9 -10 -108 -22 -108 -14 0 4 6 10 13 12 17 7 102 8 95 2z m262 -5
c0 -5 -8 -10 -17 -10 -15 0 -16 2 -3 10 19 12 20 12 20 0z m90 6 c0 -2 -13 -6
-30 -8 -16 -3 -30 -1 -30 4 0 4 14 8 30 8 17 0 30 -2 30 -4z m-243 -28 c-3 -8
-6 -5 -6 6 -1 11 2 17 5 13 3 -3 4 -12 1 -19z m113 18 c0 -2 -7 -6 -15 -10 -8
-3 -15 -1 -15 4 0 6 7 10 15 10 8 0 15 -2 15 -4z m-150 -16 c0 -5 -4 -10 -10
-10 -5 0 -10 5 -10 10 0 6 5 10 10 10 6 0 10 -4 10 -10z m290 0 c0 -5 -12 -10
-27 -11 -56 -2 -138 -9 -155 -13 -10 -2 -18 0 -18 4 0 8 31 13 140 23 19 2 41
5 48 5 6 1 12 -2 12 -8z m-400 -9 c0 -5 -19 -13 -42 -19 -41 -10 -39 -10 20
-5 43 4 62 2 62 -6 0 -6 -10 -12 -22 -12 -17 -1 -19 -2 -5 -6 25 -6 21 -17
-10 -31 -19 -8 -21 -10 -5 -6 26 6 30 -12 5 -20 -19 -5 -94 -9 -128 -6 l-20 1
20 9 c11 5 38 10 60 11 31 2 34 3 13 6 -36 6 -36 23 -1 23 37 0 22 11 -16 12
-23 1 -30 5 -27 15 3 7 1 13 -4 13 -6 0 -10 4 -10 9 0 6 17 11 38 13 20 2 45
4 55 5 9 1 17 -2 17 -6z m110 -21 c0 -5 -4 -10 -10 -10 -5 0 -10 5 -10 10 0 6
5 10 10 10 6 0 10 -4 10 -10z m61 -125 l5 110 2 -118 c1 -87 -1 -116 -10 -111
-6 4 -8 3 -4 -4 3 -6 2 -13 -4 -17 -7 -4 -9 39 -8 127 l2 133 6 -115 6 -115 5
110z m328 92 c0 -12 -3 -16 -6 -9 -2 6 -21 12 -41 12 -27 0 -33 -3 -22 -10 25
-16 4 -24 -79 -32 -21 -2 -36 2 -38 10 -3 8 7 12 34 12 21 0 45 5 53 11 13 9
12 10 -2 5 -10 -3 -18 -1 -18 4 0 9 23 14 83 17 32 1 37 -1 36 -20z m-129 3
c0 -5 -25 -10 -55 -10 -32 0 -55 -4 -55 -10 0 -6 7 -10 16 -8 10 2 19 -2 21
-7 2 -6 -18 -12 -47 -13 -27 -1 -50 2 -50 7 0 6 9 8 20 6 11 -2 22 0 25 6 4 5
1 9 -4 9 -6 0 -11 4 -11 10 0 5 28 11 63 13 34 2 65 4 70 5 4 1 7 -2 7 -8z
m110 -20 c0 -5 -7 -10 -15 -10 -8 0 -15 5 -15 10 0 6 7 10 15 10 8 0 15 -4 15
-10z m-363 -6 c-3 -3 -12 -4 -19 -1 -8 3 -5 6 6 6 11 1 17 -2 13 -5z m-2 -24
c3 -5 -1 -10 -9 -10 -9 0 -16 5 -16 10 0 6 4 10 9 10 6 0 13 -4 16 -10z m-130
-30 c-3 -5 -19 -10 -35 -10 -23 0 -27 -3 -23 -20 3 -11 1 -20 -5 -20 -6 0 -14
9 -17 20 -3 11 -14 20 -23 21 -26 2 28 15 71 18 25 1 36 -2 32 -9z m130 0 c3
-5 0 -10 -7 -10 -11 0 -10 -2 0 -9 11 -7 11 -9 -2 -14 -12 -5 -16 0 -16 18 0
25 14 33 25 15z m300 0 c4 -6 -5 -10 -20 -10 -15 0 -24 4 -20 10 3 6 12 10 20
10 8 0 17 -4 20 -10z m-105 -10 c0 -5 -18 -10 -41 -10 -22 0 -38 4 -35 8 7 12
76 14 76 2z m42 -2 c-9 -9 -15 -9 -24 0 -9 9 -7 12 12 12 19 0 21 -3 12 -12z
m-608 -23 c3 -8 1 -15 -4 -15 -6 0 -10 7 -10 15 0 8 2 15 4 15 2 0 6 -7 10
-15z m296 5 c0 -5 -15 -11 -32 -11 -18 -1 -25 -3 -15 -6 26 -7 20 -21 -10 -26
-23 -3 -21 -4 10 -6 42 -1 51 -21 10 -21 -16 0 -38 -3 -50 -6 -19 -5 -23 -2
-23 15 0 14 -5 19 -15 15 -8 -4 -15 -1 -15 5 0 6 7 11 15 11 8 0 19 8 24 18
11 20 101 31 101 12z m370 0 c0 -5 -13 -11 -30 -12 -16 -1 -37 -2 -47 -2 -9
-1 -18 4 -20 9 -1 6 19 11 47 13 30 1 50 -2 50 -8z m-110 -10 c0 -6 -23 -9
-52 -9 -45 1 -49 2 -23 9 44 11 75 11 75 0z m-180 -10 c0 -5 -7 -10 -16 -10
-8 0 -12 5 -9 10 3 6 10 10 16 10 5 0 9 -4 9 -10z m495 -1 c11 -16 1 -19 -13
-3 -7 8 -8 14 -3 14 5 0 13 -5 16 -11z m-91 -35 c4 -12 0 -14 -17 -10 -12 3
-16 3 -9 0 19 -9 14 -24 -8 -24 -11 0 -20 -6 -20 -12 0 -10 -2 -10 -8 0 -6 9
-25 11 -63 7 -30 -2 -70 -6 -90 -7 -26 -1 -35 -6 -32 -15 4 -9 -6 -13 -33 -14
-22 -1 -31 -3 -21 -6 32 -8 17 -23 -23 -23 -22 0 -40 3 -40 6 0 14 31 34 54
34 14 0 28 5 32 11 4 8 0 9 -15 4 -12 -4 -21 -2 -21 4 0 6 12 12 28 13 15 1
36 3 47 4 11 1 37 2 58 3 20 1 37 5 37 10 0 4 -11 6 -25 3 -15 -2 -25 0 -25 7
0 6 17 11 40 11 31 0 40 -4 41 -17 1 -16 2 -16 6 -1 4 16 68 38 90 31 6 -3 14
-11 17 -19z m-404 6 c0 -5 -4 -10 -10 -10 -5 0 -10 5 -10 10 0 6 5 10 10 10 6
0 10 -4 10 -10z m196 -13 c4 -4 -5 -7 -20 -7 -15 0 -25 4 -22 9 7 10 31 9 42
-2z m-56 -1 c0 -3 -4 -8 -10 -11 -5 -3 -10 -1 -10 4 0 6 5 11 10 11 6 0 10 -2
10 -4z m-140 -16 c0 -5 -4 -10 -9 -10 -6 0 -13 5 -16 10 -3 6 1 10 9 10 9 0
16 -4 16 -10z m-315 -25 c0 -11 -8 -21 -17 -23 -14 -3 -18 3 -18 23 0 20 4 26
18 23 9 -2 17 -12 17 -23z m312 -1 c-3 -3 -12 -4 -19 -1 -8 3 -5 6 6 6 11 1
17 -2 13 -5z m3 -24 c0 -5 -7 -10 -16 -10 -8 0 -12 5 -9 10 3 6 10 10 16 10 5
0 9 -4 9 -10z m-310 -51 c0 -23 -28 -26 -37 -3 -6 16 15 37 29 28 4 -3 8 -14
8 -25z m-800 1 c-19 -13 -30 -13 -30 0 0 6 10 10 23 10 18 0 19 -2 7 -10z m98
-1 c-12 -7 -24 -7 -35 0 -15 9 -12 10 17 10 29 0 32 -1 18 -10z m703 -94 c-1
-15 -24 -12 -29 3 -3 9 2 13 12 10 10 -1 17 -7 17 -13z m-2696 -15 c33 -6 24
-8 -46 -9 -64 -1 -88 2 -92 12 -5 15 53 13 138 -3z m3753 -27 c-2 -22 -8 -28
-26 -28 -12 0 -26 -6 -31 -13 -10 -16 -9 -16 -44 -3 -22 9 -33 8 -50 -4 -46
-32 -81 -8 -59 41 11 22 52 35 52 16 0 -13 42 -12 61 2 10 6 36 13 59 14 40 3
41 2 38 -25z m522 -88 c0 -8 -7 -15 -16 -15 -14 0 -14 3 -4 15 7 8 14 15 16
15 2 0 4 -7 4 -15z m-185 -134 l7 -50 -66 1 c-49 1 -66 4 -66 15 0 10 11 13
40 11 22 -1 43 2 47 6 4 4 9 28 10 54 1 26 2 52 3 57 3 16 17 -40 25 -94z
m-1047 32 c3 -29 0 -33 -30 -42 l-33 -9 38 -1 c39 -1 40 1 37 57 l-2 33 56 -2
55 -2 -18 -36 c-10 -20 -22 -55 -26 -78 -4 -24 -11 -43 -16 -43 -6 0 -8 4 -5
9 3 5 -1 12 -10 15 -9 3 -12 2 -9 -5 4 -5 3 -15 -3 -22 -14 -19 -23 -49 -12
-42 6 3 10 13 10 21 0 8 5 14 10 14 14 0 12 -29 -3 -44 -8 -8 -26 -11 -46 -8
-23 3 -32 1 -27 -6 4 -7 -3 -14 -19 -18 -32 -8 -22 -24 16 -24 19 0 29 -5 29
-15 0 -8 -4 -15 -10 -15 -5 0 -10 5 -10 10 0 7 -6 7 -19 0 -30 -16 -47 -12
-81 16 -27 23 -39 26 -105 26 -52 0 -77 4 -86 14 -6 8 -20 14 -30 14 -11 0
-19 7 -19 15 0 8 -9 35 -21 60 -11 24 -17 50 -13 57 4 7 3 10 -1 5 -9 -8 -39
52 -31 61 3 2 78 6 167 8 89 2 164 6 167 9 2 2 25 3 51 2 44 -2 46 -3 49 -34z
m690 -22 c3 -8 -4 -12 -19 -9 -12 1 -24 9 -27 16 -2 8 4 11 19 9 13 -2 25 -9
27 -16z m129 3 c-3 -3 -12 -4 -19 -1 -8 3 -5 6 6 6 11 1 17 -2 13 -5z m-3712
-34 c-4 -6 -14 -10 -23 -10 -9 0 -28 -9 -42 -20 -14 -11 -31 -20 -39 -20 -8 0
-11 -3 -8 -7 4 -3 1 -13 -6 -21 -6 -8 -17 -31 -23 -51 l-11 -36 -7 45 c-13 79
-14 80 -56 80 -47 0 -63 -22 -57 -80 2 -22 3 -40 1 -40 -2 0 -15 23 -29 50
-14 28 -31 50 -38 50 -8 0 -9 -2 -1 -8 6 -4 21 -27 34 -51 27 -54 23 -116 -9
-157 -11 -15 -21 -32 -21 -38 1 -11 35 25 57 60 10 16 12 13 12 -27 1 -51 9
-59 66 -59 38 0 45 12 45 72 l0 41 25 -47 c28 -52 32 -71 13 -60 -10 5 -10 4
-1 -6 9 -10 16 -10 26 -2 10 8 20 7 41 -7 15 -10 24 -21 19 -24 -5 -3 -158 -9
-341 -13 l-332 -7 -1 64 c0 35 -4 123 -8 194 -4 72 -6 133 -4 138 3 4 166 7
364 7 226 -1 357 -4 354 -10z m185 -11 c0 -5 4 -8 9 -5 5 3 14 -14 20 -38 6
-24 14 -52 17 -62 4 -11 -9 2 -27 28 -19 26 -39 48 -45 48 -6 0 -17 6 -24 14
-6 8 -21 17 -33 19 -12 2 2 5 31 6 31 0 52 -3 52 -10z m55 1 c3 -5 -1 -10 -10
-10 -9 0 -13 5 -10 10 3 6 8 10 10 10 2 0 7 -4 10 -10z m3425 -5 c0 -11 -31
-11 -39 -1 -9 10 -6 12 14 8 14 -2 25 -6 25 -7z m808 1 c19 -19 -32 -25 -243
-26 -202 0 -235 2 -235 14 0 12 20 16 103 19 117 4 368 -1 375 -7z m-5245 -9
c12 -32 -8 -36 -188 -33 -99 2 -237 4 -307 5 -105 1 -128 4 -128 16 0 16 54
19 416 23 161 2 203 -1 207 -11z m5352 2 c-4 -6 -13 -8 -20 -5 -7 2 -18 -1
-24 -7 -8 -8 -11 -7 -11 6 0 12 8 17 31 17 19 0 28 -4 24 -11z m-3868 -13 c1
-1 -8 -27 -20 -59 -17 -44 -27 -57 -43 -57 -14 0 -36 -19 -64 -57 -24 -32 -45
-60 -47 -62 -7 -9 -100 109 -95 122 1 5 -1 6 -6 3 -7 -4 -122 105 -122 116 0
3 394 -2 397 -6z m-717 -6 c0 -5 -7 -7 -15 -4 -8 4 -15 8 -15 10 0 2 7 4 15 4
8 0 15 -4 15 -10z m-44 -22 c4 -7 4 -10 -1 -6 -5 5 -15 -1 -22 -12 -8 -11 -19
-17 -25 -14 -7 4 -2 14 13 25 29 22 26 22 35 7z m-138 -73 c0 -63 -2 -75 -16
-76 -15 -1 -15 -2 1 -6 23 -6 22 -50 -2 -63 -14 -7 -22 -7 -27 1 -8 13 -7 96
1 109 4 6 1 10 -4 10 -7 0 -10 20 -9 50 3 47 4 50 29 50 26 0 27 -1 27 -75z
m1060 53 c-5 -14 -78 -22 -78 -9 0 15 14 21 48 21 22 0 32 -4 30 -12z m-703
-7 c3 -5 1 -12 -5 -16 -5 -3 -10 1 -10 9 0 18 6 21 15 7z m4282 -13 c-3 -8 -6
-5 -6 6 -1 11 2 17 5 13 3 -3 4 -12 1 -19z m-4545 -62 c-6 -20 -6 -20 -10 -1
-2 11 -9 26 -16 34 -9 12 -8 12 10 1 15 -9 20 -19 16 -34z m25 38 c-3 -3 -12
-4 -19 -1 -8 3 -5 6 6 6 11 1 17 -2 13 -5z m541 -138 c26 -31 22 -46 -13 -46
-13 0 -27 -5 -30 -10 -4 -6 -16 -8 -27 -4 -13 4 -24 0 -33 -13 -23 -31 -30 -6
-33 110 l-3 112 58 -61 c32 -33 68 -73 81 -88z m1195 127 c-13 -2 -33 -2 -45
0 -13 2 -3 4 22 4 25 0 35 -2 23 -4z m-1583 -60 c0 -7 -11 -13 -25 -13 -28 0
-30 8 -13 45 l12 26 13 -23 c7 -13 12 -29 13 -35z m-207 18 c2 -10 1 -24 -3
-30 -4 -7 -7 1 -8 18 -1 35 3 40 11 12z m2632 -2 c-8 -12 -145 -12 -145 1 0 5
30 10 68 12 73 3 85 1 77 -13z m-1677 -15 c-11 -11 -23 -14 -35 -9 -16 7 -15
9 7 15 40 12 45 11 28 -6z m-1645 -25 c4 -14 0 -19 -15 -19 -10 0 -17 4 -14 8
3 5 -7 8 -22 7 -15 -2 -19 0 -9 2 10 3 21 11 23 18 7 18 31 8 37 -16z m1547
27 c0 -9 -30 -14 -35 -6 -4 6 3 10 14 10 12 0 21 -2 21 -4z m930 -26 c0 -32
-14 -40 -24 -14 -5 14 8 44 20 44 2 0 4 -13 4 -30z m1050 20 c0 -5 -4 -12 -10
-15 -5 -3 -10 0 -10 7 0 11 -2 10 -9 0 -10 -16 -63 -12 -68 5 -3 8 11 12 46
11 28 0 51 -4 51 -8z m1040 -77 c0 -7 -2 -13 -4 -13 -10 0 -46 69 -46 86 1 13
8 6 25 -21 14 -22 25 -46 25 -52z m256 45 c8 -8 17 -30 20 -49 5 -27 1 -40
-20 -62 -21 -22 -33 -27 -75 -27 -47 0 -49 1 -46 25 1 16 -3 25 -11 25 -20 0
-18 65 4 91 14 17 25 20 65 16 27 -2 55 -11 63 -19z m71 -10 c-3 -8 -6 -5 -6
6 -1 11 2 17 5 13 3 -3 4 -12 1 -19z m-1027 -8 c0 -19 -11 -26 -23 -14 -8 8 3
34 14 34 5 0 9 -9 9 -20z m-3940 -15 c30 -8 70 -15 88 -15 20 0 32 -5 32 -14
0 -18 -31 -26 -107 -26 l-62 0 -3 -42 c-2 -31 -8 -44 -20 -46 -15 -3 -18 4
-18 41 l0 45 -102 6 c-57 3 -143 8 -193 11 -50 2 -99 5 -109 5 -13 0 -17 3
-10 10 6 6 91 10 204 11 209 0 280 6 245 20 -33 13 -3 10 55 -6z m80 5 c0 -5
-9 -10 -20 -10 -11 0 -20 5 -20 10 0 6 9 10 20 10 11 0 20 -4 20 -10z m715
-10 c3 -5 2 -10 -4 -10 -5 0 -13 5 -16 10 -3 6 -2 10 4 10 5 0 13 -4 16 -10z
m4152 -22 c-3 -7 -5 -2 -5 12 0 14 2 19 5 13 2 -7 2 -19 0 -25z m393 18 c0 -2
3 -11 6 -20 5 -13 -15 -15 -155 -18 -89 -2 -161 -2 -161 -1 0 1 -3 8 -6 16 -5
13 14 15 133 13 76 -1 144 -5 151 -10 7 -4 12 -1 12 8 0 9 5 16 10 16 6 0 10
-2 10 -4z m-2372 -23 c-15 -2 -42 -2 -60 0 -18 2 -6 4 27 4 33 0 48 -2 33 -4z
m1576 -45 c25 -33 31 -48 21 -48 -8 0 -15 5 -15 10 0 6 -6 10 -13 10 -11 0
-37 52 -37 75 0 10 0 11 44 -47z m894 45 c-16 -2 -40 -2 -55 0 -16 2 -3 4 27
4 30 0 43 -2 28 -4z m-4742 -10 c-11 -11 -35 -12 -42 -2 -3 5 7 9 22 9 15 0
24 -3 20 -7z m2107 -6 c-47 -6 -98 -6 -150 0 -75 10 -73 10 72 10 140 0 145
-1 78 -10z m2168 -41 c-5 -13 -19 -22 -35 -24 -33 -4 -33 0 2 36 28 30 46 24
33 -12z m-3991 14 c-8 -5 -24 -9 -35 -9 l-20 0 20 9 c11 5 27 9 35 9 13 1 13
0 0 -9z m3360 -1 c-47 -3 -98 -10 -113 -14 -16 -4 -38 -3 -50 3 -12 6 -31 13
-42 15 -11 3 50 4 135 4 137 0 145 -1 70 -8z m-3309 -6 c-10 -4 -10 -7 -1 -13
7 -5 2 -7 -14 -7 -24 0 -25 1 -9 13 10 7 23 13 28 13 6 0 4 -3 -4 -6z m1564
-39 c47 -16 121 -62 113 -70 -2 -2 -38 10 -79 27 -83 34 -107 39 -194 40 -40
1 -53 4 -40 9 16 6 12 9 -20 13 -22 3 7 4 65 2 65 -2 124 -10 155 -21z m1558
19 c-7 -2 -19 -2 -25 0 -7 3 -2 5 12 5 14 0 19 -2 13 -5z m-1806 -19 c-3 -3
-12 -4 -19 -1 -8 3 -5 6 6 6 11 1 17 -2 13 -5z m2103 -4 c0 -5 -6 -10 -14 -10
-8 0 -18 5 -21 10 -3 6 3 10 14 10 12 0 21 -4 21 -10z m-1415 -60 c-3 -5 -10
-10 -16 -10 -5 0 -9 5 -9 10 0 6 7 10 16 10 8 0 12 -4 9 -10z m-1501 -7 c3 -4
122 -6 264 -5 l257 3 -35 -34 c-76 -72 -136 -167 -159 -255 -7 -23 -12 -79
-12 -123 l0 -81 -21 19 c-12 10 -68 64 -125 120 -81 80 -110 117 -134 168 -17
36 -29 74 -26 85 6 21 -23 32 -66 24 -15 -2 -27 0 -27 5 0 5 -17 12 -38 16
-59 10 -70 21 -31 33 19 6 53 13 76 15 24 2 46 6 50 10 8 9 18 9 27 0z m846
-27 c0 -7 14 -10 40 -8 22 2 40 8 40 14 0 5 -4 7 -8 4 -5 -3 -22 -1 -38 4 -19
6 3 7 66 3 90 -5 132 -9 138 -14 2 -2 18 -6 31 -8 5 0 6 -11 3 -23 -5 -22 -5
-22 12 -5 10 10 25 16 33 13 8 -3 19 -6 23 -6 5 0 18 -10 30 -22 23 -25 21
-37 -22 -123 l-31 -60 21 -65 c33 -103 34 -110 8 -110 -27 0 -45 33 -51 94 -8
67 -14 158 -14 209 -1 26 -5 47 -9 47 -9 0 -64 -161 -83 -245 -6 -27 -15 -54
-19 -58 -9 -10 -19 60 -26 183 -3 52 -9 99 -14 104 -10 10 -3 -127 11 -239 6
-43 11 -136 11 -205 0 -114 -3 -133 -27 -191 -15 -35 -30 -84 -33 -109 -7 -45
-8 -45 -47 -45 l-40 1 -11 54 c-14 66 -25 93 -83 190 -61 102 -116 174 -145
190 -15 7 -39 10 -60 7 -40 -6 -106 -52 -106 -73 0 -28 -17 -13 -28 25 -21 68
-15 190 12 257 39 96 75 130 195 186 86 41 113 49 143 45 21 -3 41 -1 44 4 7
12 34 -8 34 -25z m728 27 c-10 -2 -18 -9 -18 -14 0 -6 -15 -16 -34 -24 -34
-15 -66 -11 -66 6 0 5 -4 9 -10 9 -5 0 -10 -7 -10 -15 0 -9 -6 -12 -17 -8 -13
4 -15 3 -8 -5 6 -5 19 -12 30 -15 13 -3 7 -5 -15 -6 -34 -2 -34 -3 -10 -12 14
-6 48 -10 75 -9 28 1 83 1 122 1 l73 -1 -10 -26 c-15 -39 -11 -168 9 -277 12
-70 14 -100 7 -105 -22 -13 -46 -62 -46 -90 0 -29 41 -144 60 -167 5 -6 8 -15
5 -18 -3 -4 -2 -5 1 -2 12 8 41 -14 47 -35 6 -25 -8 -26 -25 -1 -13 18 -18 21
-39 21 -6 0 -9 7 -5 15 3 8 1 15 -5 15 -6 0 -8 7 -5 16 3 9 2 12 -5 9 -5 -4
-17 -1 -25 6 -8 6 -17 9 -21 6 -3 -4 -24 9 -46 28 -35 30 -48 35 -92 35 -56 0
-75 -12 -75 -48 0 -20 -3 -22 -14 -13 -11 9 -16 9 -21 1 -4 -7 -11 -8 -16 -3
-6 6 5 49 27 109 33 90 37 108 37 199 0 83 -5 111 -26 165 -39 102 -81 170
-103 170 -19 0 -19 0 27 -91 22 -45 39 -83 36 -85 -2 -2 -16 23 -32 55 -15 33
-43 74 -61 91 -19 17 -34 38 -34 45 0 8 -8 18 -17 24 -10 5 -14 13 -10 17 4 4
22 -7 41 -25 19 -18 36 -28 40 -23 3 5 17 7 31 4 15 -2 25 0 25 7 0 6 -8 11
-17 11 -10 0 -26 12 -36 25 -17 24 -17 25 1 25 11 0 30 -11 44 -24 40 -37 82
-44 46 -8 -13 13 8 16 105 14 33 0 50 4 54 14 3 8 15 13 27 13 16 -1 17 -2 4
-6z m-1848 -27 c0 -11 -19 -15 -25 -6 -3 5 1 10 9 10 9 0 16 -2 16 -4z m1857
-24 c8 -5 9 -13 3 -22 -7 -10 -10 -11 -10 -2 0 6 -7 12 -15 12 -8 0 -15 5 -15
10 0 12 20 13 37 2z m933 -47 c0 -5 4 -4 8 2 6 10 13 9 31 -3 23 -17 24 -39 0
-39 -10 0 -14 -12 -14 -38 0 -32 -2 -35 -13 -20 -6 9 -10 26 -7 37 6 21 6 21
-9 2 -9 -11 -16 -33 -16 -49 0 -29 -25 -65 -38 -53 -3 4 -1 10 5 14 6 4 12 27
14 52 2 25 8 48 14 52 5 4 -2 8 -17 8 -29 0 -37 -14 -15 -24 6 -4 2 -4 -10 -2
-13 2 -24 -2 -28 -12 -5 -14 -7 -14 -15 -2 -12 20 -17 3 -23 -77 -4 -47 -2
-63 8 -63 14 0 28 70 19 94 -3 9 -1 16 5 16 6 0 11 7 11 16 0 9 6 14 13 12 16
-6 16 -74 -1 -70 -7 1 -12 -9 -12 -23 0 -17 5 -25 18 -25 10 0 25 -9 35 -20 9
-11 14 -20 12 -20 -3 0 0 -6 7 -14 11 -12 14 -12 22 2 8 14 10 14 17 -3 6 -17
8 -16 8 7 1 15 5 29 10 33 15 9 24 -60 12 -83 -6 -12 -11 -32 -11 -46 0 -14
-4 -28 -10 -31 -5 -3 -10 -16 -10 -28 0 -12 -9 -40 -20 -62 -11 -22 -18 -33
-16 -24 3 12 -2 15 -21 11 -18 -3 -23 -9 -20 -23 6 -24 -2 -24 -18 -2 -17 23
-90 44 -104 30 -6 -6 -11 -8 -11 -4 0 9 -48 -17 -75 -40 -11 -10 -36 -49 -55
-88 -26 -54 -34 -83 -35 -127 0 -31 -3 -51 -7 -45 -5 8 -8 7 -8 -3 0 -13 -1
-13 -10 0 -5 8 -10 10 -10 4 0 -7 -30 -12 -82 -13 -45 -1 -84 -4 -87 -6 -2 -3
-10 0 -17 5 -6 6 -16 10 -20 9 -14 -2 -54 13 -54 20 0 4 6 15 13 24 10 14 18
15 45 8 18 -5 30 -6 27 -1 -8 13 25 28 49 23 17 -4 18 -3 6 6 -11 8 -12 13 -3
19 31 20 9 152 -41 252 -44 87 -71 110 -127 110 -37 0 -49 4 -53 18 -13 43
-26 154 -26 224 l0 78 248 3 c384 5 512 3 512 -8z m-4525 -5 c3 -5 -3 -10 -15
-10 -12 0 -18 5 -15 10 3 6 10 10 15 10 5 0 12 -4 15 -10z m638 -23 c3 -25 2
-27 -8 -14 -7 11 -16 13 -26 6 -8 -5 -18 -9 -24 -9 -5 0 -3 4 5 10 9 5 -87 9
-260 9 -163 1 -276 5 -278 10 -2 6 -10 7 -18 4 -8 -3 -14 0 -14 6 0 8 87 11
309 10 l309 -2 5 -30z m495 -4 l-1 -33 -86 1 c-61 0 -80 3 -66 10 15 7 8 8
-27 6 -27 -1 -50 2 -53 8 -3 5 -3 -11 -1 -37 3 -42 1 -48 -15 -48 -21 0 -25
37 -13 99 l7 32 128 -2 128 -2 -1 -34z m848 -20 c10 -32 31 -77 46 -101 16
-24 25 -48 22 -54 -4 -6 -2 -8 3 -5 6 4 63 -44 127 -105 126 -121 190 -210
230 -320 13 -35 33 -80 45 -100 22 -36 22 -37 3 -47 -14 -8 -283 -7 -439 2
-11 0 -48 125 -40 134 3 2 1 22 -4 44 -5 21 -12 56 -14 77 -3 20 -10 60 -15
87 -5 28 -16 100 -25 161 -23 160 -24 168 -40 180 -10 7 -79 9 -217 5 -112 -3
-241 -6 -288 -6 l-85 0 -2 53 -2 52 339 0 339 0 17 -57z m484 24 c-14 -12 -35
-38 -47 -57 -29 -44 -30 -27 -2 20 22 37 60 72 69 63 3 -2 -6 -14 -20 -26z
m2220 13 c0 -15 -7 -20 -25 -20 -18 0 -25 5 -25 20 0 15 7 20 25 20 18 0 25
-5 25 -20z m417 4 c3 -8 -25 -12 -88 -13 -51 -1 -96 -4 -100 -7 -4 -2 -19 0
-32 5 -18 7 -27 7 -31 -2 -2 -7 -5 -2 -5 11 -1 23 -1 23 126 20 82 -2 128 -7
130 -14z m616 -4 c5 -4 -62 -9 -150 -9 -87 -1 -173 -3 -191 -5 -19 -1 -31 2
-29 8 2 6 32 13 68 16 89 7 292 1 302 -10z m57 0 c0 -5 -7 -10 -15 -10 -8 0
-15 5 -15 10 0 6 7 10 15 10 8 0 15 -4 15 -10z m45 0 c3 -5 -1 -10 -9 -10 -8
0 -18 5 -21 10 -3 6 1 10 9 10 8 0 18 -4 21 -10z m65 -2 c0 -5 -11 -8 -25 -8
-14 0 -25 3 -25 8 0 4 11 7 25 7 14 0 25 -3 25 -7z m45 2 c3 -5 1 -10 -4 -10
-6 0 -11 5 -11 10 0 6 2 10 4 10 3 0 8 -4 11 -10z m-2624 -57 c16 -27 37 -73
46 -103 20 -66 22 -189 3 -245 l-13 -40 -13 46 c-11 38 -20 49 -54 65 -29 14
-40 25 -40 41 0 13 -10 51 -21 84 l-22 62 34 68 c18 38 37 69 41 69 5 0 22
-21 39 -47z m2485 21 c-3 -9 -6 -23 -7 -32 0 -13 -2 -13 -8 3 -9 23 -4 45 11
45 6 0 7 -7 4 -16z m-5169 -26 c-3 -8 -6 -5 -6 6 -1 11 2 17 5 13 3 -3 4 -12
1 -19z m4050 0 c-3 -8 -6 -5 -6 6 -1 11 2 17 5 13 3 -3 4 -12 1 -19z m-3710
-2 c4 -7 15 -16 23 -19 9 -3 3 -6 -13 -6 -16 -1 -26 3 -22 9 3 6 -3 10 -14 10
-12 0 -21 5 -21 10 0 15 38 12 47 -4z m2163 -87 c0 -42 7 -98 15 -125 14 -47
14 -49 -9 -74 -13 -14 -32 -38 -42 -55 -36 -58 -42 -59 -48 -7 -8 54 2 114 41
259 16 60 30 97 35 90 4 -7 8 -46 8 -88z m-2090 81 c0 -5 7 -10 15 -10 8 0 15
5 15 11 0 15 63 5 68 -11 3 -9 -1 -11 -12 -7 -9 4 -16 1 -16 -6 0 -7 -7 -3
-15 7 -8 11 -15 14 -15 8 0 -16 -29 -15 -60 3 -25 14 -25 14 -2 15 12 0 22 -4
22 -10z m1335 -97 c-9 -15 -14 -20 -11 -10 4 11 9 31 13 45 5 19 8 22 11 10 2
-9 -4 -29 -13 -45z m2186 14 c-8 -8 -11 -3 -11 19 1 25 2 27 11 11 8 -14 8
-22 0 -30z m1228 -33 c0 16 4 27 7 23 9 -9 -5 -77 -16 -77 -6 0 -9 21 -9 48 2
46 2 46 9 12 7 -34 7 -34 9 -6z m-2383 -64 c4 -44 3 -62 -3 -55 -6 6 -14 39
-17 75 -5 46 -4 62 3 55 6 -6 14 -40 17 -75z m1138 55 c3 -8 1 -15 -4 -15 -6
0 -10 7 -10 15 0 8 2 15 4 15 2 0 6 -7 10 -15z m-2182 -87 c-6 -97 -12 -99
-12 -5 0 43 4 77 9 77 4 0 6 -33 3 -72z m2321 31 c12 -8 2 -39 -13 -39 -5 0
-9 19 -9 43 1 23 4 33 6 22 3 -11 10 -23 16 -26z m-4355 -11 c3 -16 -7 -18
-102 -18 -59 0 -108 4 -111 10 -3 6 -18 11 -33 12 -54 3 85 15 163 14 67 -1
80 -4 83 -18z m-318 2 c0 -5 -2 -10 -4 -10 -3 0 -8 5 -11 10 -3 6 -1 10 4 10
6 0 11 -4 11 -10z m40 6 c0 -2 -7 -6 -15 -10 -8 -3 -15 -1 -15 4 0 6 7 10 15
10 8 0 15 -2 15 -4z m5013 -5 c32 0 57 -6 57 -12 0 -5 -4 -7 -10 -4 -5 3 -10
1 -10 -4 0 -7 -44 -11 -125 -11 -97 0 -125 3 -125 13 0 8 2 16 4 18 4 4 75 4
209 0z m622 -10 l40 -3 -35 -9 c-56 -14 -340 -9 -340 6 0 9 36 12 148 10 81
-1 165 -3 187 -4z m128 -18 c-7 -2 -19 -2 -25 0 -7 3 -2 5 12 5 14 0 19 -2 13
-5z m-1156 -45 c-3 -8 -6 -5 -6 6 -1 11 2 17 5 13 3 -3 4 -12 1 -19z m-3427
-43 c16 -20 10 -26 -18 -18 -12 3 -22 12 -22 19 0 19 24 18 40 -1z m3417 -7
c-3 -8 -6 -5 -6 6 -1 11 2 17 5 13 3 -3 4 -12 1 -19z m9 -41 c8 3 14 -1 14
-10 0 -10 -7 -13 -20 -10 -11 3 -20 13 -19 22 0 9 3 11 5 4 3 -7 12 -9 20 -6z
m-1435 -74 c-12 -20 -14 -14 -5 12 4 9 9 14 11 11 3 -2 0 -13 -6 -23z m1282
13 c3 -8 -2 -20 -11 -28 -15 -11 -15 -11 -5 3 10 12 10 18 1 27 -8 8 -9 12 -1
12 6 0 13 -6 16 -14z m101 -21 c-4 -8 -1 -15 5 -15 7 0 14 7 17 15 8 21 26 19
47 -6 29 -33 18 -54 -31 -57 -23 -2 -42 -7 -42 -11 0 -4 -7 -16 -15 -27 -15
-18 -15 -18 -8 0 4 12 3 17 -4 13 -16 -10 -6 49 13 78 18 28 26 33 18 10z
m-3609 -5 c4 -6 15 -8 26 -5 14 5 17 3 13 -9 -3 -9 -11 -16 -18 -16 -7 0 -6
-4 3 -9 10 -7 11 -13 2 -30 -10 -17 -21 -21 -66 -21 -50 0 -55 2 -61 25 -3 14
-12 25 -20 25 -10 0 -7 7 8 22 19 19 26 20 60 11 32 -9 36 -8 27 3 -9 11 -8
14 4 14 9 0 19 -5 22 -10z m225 -25 c0 -38 -7 -44 -55 -46 -46 -3 -55 0 -55
15 0 7 -9 16 -20 19 -11 3 -20 10 -20 15 0 11 40 10 58 -2 8 -4 10 -2 6 8 -4
11 2 14 25 14 17 -1 34 2 38 5 15 15 23 5 23 -28z m-905 16 c10 -18 -13 -20
-131 -14 -71 4 -110 9 -99 14 29 11 223 11 230 0z m1202 -16 c-3 -19 -22 -25
-84 -25 -61 0 -89 14 -62 31 19 12 148 7 146 -6z m1664 -56 c-16 -35 -36 -73
-46 -84 -9 -11 -14 -15 -11 -10 2 6 21 46 40 89 20 44 39 77 41 74 3 -3 -8
-34 -24 -69z m1683 56 c-6 -16 -24 -21 -24 -7 0 11 11 22 21 22 5 0 6 -7 3
-15z m209 6 c44 -1 57 -4 57 -16 0 -12 -19 -15 -112 -15 -108 1 -112 1 -92 18
12 10 34 16 55 15 19 -1 60 -2 92 -2z m-2443 -133 c14 -29 16 -36 5 -23 -19
23 -65 110 -65 122 0 11 34 -45 60 -99z m937 68 c40 -26 41 -33 4 -41 -33 -7
-113 13 -105 26 3 5 0 9 -5 9 -6 0 -11 5 -11 11 0 6 7 8 16 5 8 -3 13 -2 9 3
-7 13 16 20 40 14 11 -3 34 -15 52 -27z m2383 -14 c0 -15 -2 -15 -10 -2 -13
20 -13 33 0 25 6 -3 10 -14 10 -23z m-1254 -34 c-8 -58 -31 -85 -53 -62 -7 7
-13 16 -13 20 0 5 5 3 12 -4 17 -17 23 -15 26 6 6 56 15 92 24 92 7 0 8 -19 4
-52z m-1392 -31 c-6 -18 -34 -31 -34 -17 0 5 5 21 12 35 9 21 13 23 20 11 4
-8 5 -21 2 -29z m1290 27 c3 -8 2 -12 -4 -9 -6 3 -10 10 -10 16 0 14 7 11 14
-7z m789 9 c-7 -2 -19 -2 -25 0 -7 3 -2 5 12 5 14 0 19 -2 13 -5z m-4396 -9
c-3 -3 -12 -4 -19 -1 -8 3 -5 6 6 6 11 1 17 -2 13 -5z m2498 -14 c3 -5 1 -10
-4 -10 -6 0 -11 5 -11 10 0 6 2 10 4 10 3 0 8 -4 11 -10z m145 0 c-8 -5 -19
-10 -25 -10 -5 0 -3 5 5 10 8 5 20 10 25 10 6 0 3 -5 -5 -10z m-265 -8 c6 -4
16 -15 24 -24 12 -16 10 -20 -10 -38 -13 -10 -30 -19 -36 -20 -7 0 -13 -4 -13
-9 0 -10 -31 -24 -38 -17 -5 6 50 116 58 116 3 0 10 -4 15 -8z m295 -6 c0 -11
-19 -15 -25 -6 -3 5 1 10 9 10 9 0 16 -2 16 -4z m1107 -58 c-2 -13 -4 -3 -4
22 0 25 2 35 4 23 2 -13 2 -33 0 -45z m-2269 27 c6 -14 7 -25 2 -25 -14 0 -41
31 -35 41 10 15 21 10 33 -16z m1100 -28 c37 -34 9 -42 -39 -11 -51 31 -63 46
-46 56 12 8 47 -11 85 -45z m217 22 c-4 -5 -2 -9 4 -9 5 0 11 4 13 10 3 10 48
2 48 -9 0 -3 -5 -13 -10 -21 -8 -12 -13 -13 -29 -3 -13 8 -22 9 -26 3 -3 -6
-1 -10 4 -10 6 0 11 -5 11 -12 0 -6 -9 -3 -20 7 -20 18 -26 46 -14 58 10 9 25
-3 19 -14z m809 -23 c-3 -9 -10 -13 -15 -10 -5 3 -3 11 4 19 15 16 19 13 11
-9z m-1166 -12 c31 -22 27 -32 -13 -31 -24 1 -34 5 -31 14 3 7 -1 10 -12 7
-14 -5 -13 -3 2 10 24 20 26 20 54 0z m248 -3 c5 1 16 1 24 0 12 -1 12 -4 -3
-12 -12 -7 -23 -6 -37 4 -11 8 -17 17 -13 21 4 3 10 1 13 -4 4 -6 11 -10 16
-9z m-2338 -247 c-2 -10 -12 -23 -24 -29 -16 -8 -19 -17 -16 -43 2 -22 -3 -40
-14 -53 -16 -18 -16 -19 4 -19 14 0 22 -7 23 -17 1 -10 3 -38 4 -62 2 -24 9
-47 15 -51 22 -14 0 -30 -43 -32 -37 -1 -38 -2 -9 -5 18 -2 30 -9 27 -14 -12
-18 11 -9 25 11 17 24 30 26 30 5 0 -8 4 -15 10 -15 8 0 40 -51 40 -64 0 -3
-12 -13 -27 -21 -16 -9 -20 -14 -10 -11 12 4 17 2 15 -6 -3 -7 -11 -13 -19
-14 -8 0 -16 -2 -19 -3 -3 -2 -18 -5 -35 -7 -16 -3 -38 -15 -47 -27 -9 -12
-20 -18 -25 -14 -4 5 -1 12 7 17 14 9 6 15 -15 10 -5 -1 -36 -4 -68 -6 -32 -2
-67 -8 -77 -14 -49 -26 -193 23 -149 51 12 7 12 9 -1 9 -10 0 -11 3 -4 10 7 7
9 49 7 112 -4 85 -2 103 11 110 15 8 15 11 1 25 -19 19 -11 103 11 116 8 4 14
14 14 22 0 19 8 23 67 31 46 6 52 4 57 -14 6 -18 11 -19 37 -10 16 5 37 7 47
3 14 -5 11 -10 -18 -25 -43 -24 -33 -26 14 -3 25 11 36 24 38 42 3 23 8 27 53
31 56 6 69 1 63 -26z m3458 -238 c28 -29 17 -43 -28 -36 -27 4 -42 11 -40 18
2 10 -2 10 -19 1 -16 -8 -20 -8 -14 1 5 7 1 11 -11 9 -11 -1 -26 1 -34 4 -8 3
-26 8 -40 10 -14 2 19 5 73 6 73 1 102 -3 113 -13z m209 4 c3 -5 -1 -10 -9
-10 -9 0 -16 5 -16 10 0 6 4 10 9 10 6 0 13 -4 16 -10z m-1297 -45 c-3 -3
-458 -5 -1012 -5 l-1008 0 -20 -23 c-35 -40 -226 -393 -217 -402 5 -5 2665 -6
3104 -2 140 2 150 3 148 21 -1 12 2 15 9 8 5 -5 8 -22 6 -38 l-3 -29 -250 -7
c-315 -8 -2997 -10 -3018 -2 -8 3 -17 14 -20 24 -7 26 215 430 245 446 18 11
230 13 1032 14 555 0 1007 -2 1004 -5z m718 -3 c20 -13 285 -390 266 -378 -6
3 -54 68 -108 144 -54 75 -113 158 -131 184 l-35 48 -351 3 -352 2 350 2 c193
2 355 -1 361 -5z m671 -34 c-3 -8 -6 -5 -6 6 -1 11 2 17 5 13 3 -3 4 -12 1
-19z m-247 -14 c0 -2 -7 -4 -15 -4 -8 0 -15 4 -15 10 0 5 7 7 15 4 8 -4 15 -8
15 -10z m367 -70 c-3 -3 -12 -4 -19 -1 -8 3 -5 6 6 6 11 1 17 -2 13 -5z m17
-29 c-10 -8 -26 -14 -34 -14 -9 0 -4 6 10 14 33 19 49 19 24 0z m241 -5 c-19
-21 -35 -18 -35 6 0 9 10 14 27 14 25 0 26 -1 8 -20z m-1795 -49 c0 -12 -29
-23 -42 -15 -6 4 -5 10 3 15 18 11 39 11 39 0z m108 -8 c-10 -2 -28 -2 -40 0
-13 2 -5 4 17 4 22 1 32 -1 23 -4z m69 1 c-3 -3 -12 -4 -19 -1 -8 3 -5 6 6 6
11 1 17 -2 13 -5z m81 -1 c-10 -2 -28 -2 -40 0 -13 2 -5 4 17 4 22 1 32 -1 23
-4z m1482 -94 c18 -33 7 -41 -12 -9 -9 17 -13 30 -8 30 5 0 14 -9 20 -21z
m-385 -68 c3 -5 1 -12 -4 -15 -5 -3 -11 1 -15 9 -6 16 9 21 19 6z m48 3 c3 -3
3 -12 0 -20 -4 -11 -9 -12 -19 -3 -8 6 -11 15 -8 20 6 10 18 12 27 3z m63 -65
c5 5 19 5 34 -2 14 -5 34 -12 45 -14 16 -2 17 -1 5 6 -22 15 -5 24 20 11 18
-10 20 -14 9 -21 -10 -6 -8 -10 11 -18 l25 -10 -23 0 c-13 -1 -21 -5 -18 -10
3 -4 18 -6 32 -3 19 3 25 1 20 -7 -4 -6 -12 -9 -17 -5 -5 3 -16 0 -24 -6 -12
-10 -18 -10 -30 0 -8 6 -18 9 -23 6 -18 -11 -82 18 -113 51 -22 21 -28 33 -18
33 8 0 20 -5 27 -12 8 -8 12 -8 12 -1 0 6 -7 14 -16 17 -8 3 -12 11 -8 17 4 7
13 1 23 -15 10 -15 21 -22 27 -17z m-1306 -111 c349 -1 608 -4 575 -8 -79 -10
-2441 -12 -2431 -3 10 10 745 21 1016 16 112 -2 490 -5 840 -5z m-1890 -8 c23
-7 22 -8 -10 -8 -19 0 -48 4 -65 8 -29 7 -28 8 10 8 22 0 51 -4 65 -8z"/>
<path d="M868 3923 c6 -2 18 -2 25 0 6 3 1 5 -13 5 -14 0 -19 -2 -12 -5z"/>
<path d="M923 3913 c9 -2 23 -2 30 0 6 3 -1 5 -18 5 -16 0 -22 -2 -12 -5z"/>
<path d="M1108 3883 c7 -3 16 -2 19 1 4 3 -2 6 -13 5 -11 0 -14 -3 -6 -6z"/>
<path d="M330 3601 c0 -11 59 -26 67 -17 4 3 -3 6 -15 6 -12 0 -22 5 -22 10 0
6 -7 10 -15 10 -8 0 -15 -4 -15 -9z"/>
<path d="M380 3560 c-8 -5 -12 -12 -9 -15 4 -3 12 1 19 10 14 17 11 19 -10 5z"/>
<path d="M850 2770 c0 -5 5 -10 10 -10 6 0 10 5 10 10 0 6 -4 10 -10 10 -5 0
-10 -4 -10 -10z"/>
<path d="M188 2763 c12 -2 32 -2 45 0 12 2 2 4 -23 4 -25 0 -35 -2 -22 -4z"/>
<path d="M4098 3933 c7 -3 16 -2 19 1 4 3 -2 6 -13 5 -11 0 -14 -3 -6 -6z"/>
<path d="M5018 3453 c7 -3 16 -2 19 1 4 3 -2 6 -13 5 -11 0 -14 -3 -6 -6z"/>
<path d="M4605 3290 c-27 -7 -28 -8 -5 -8 14 0 45 3 70 7 l45 8 -40 1 c-22 0
-53 -4 -70 -8z"/>
<path d="M4808 3193 c7 -3 16 -2 19 1 4 3 -2 6 -13 5 -11 0 -14 -3 -6 -6z"/>
<path d="M4660 3089 c0 -5 5 -7 10 -4 6 3 10 8 10 11 0 2 -4 4 -10 4 -5 0 -10
-5 -10 -11z"/>
<path d="M4048 3273 c6 -2 18 -2 25 0 6 3 1 5 -13 5 -14 0 -19 -2 -12 -5z"/>
<path d="M4093 3243 c9 -2 23 -2 30 0 6 3 -1 5 -18 5 -16 0 -22 -2 -12 -5z"/>
<path d="M4810 2630 c0 -5 5 -10 11 -10 5 0 7 5 4 10 -3 6 -8 10 -11 10 -2 0
-4 -4 -4 -10z"/>
<path d="M4210 2230 c0 -5 5 -10 10 -10 6 0 10 5 10 10 0 6 -4 10 -10 10 -5 0
-10 -4 -10 -10z"/>
<path d="M935 2410 c-19 -8 -19 -9 3 -9 12 -1 22 4 22 9 0 6 -1 10 -2 9 -2 0
-12 -4 -23 -9z"/>
<path d="M825 2398 c-11 -6 -26 -18 -32 -26 -12 -14 -13 -14 -13 1 0 9 -7 17
-15 17 -8 0 -15 -5 -15 -11 0 -5 5 -7 10 -4 17 10 11 -18 -10 -50 -14 -22 -20
-47 -20 -90 0 -73 19 -107 82 -148 43 -27 47 -20 5 9 -25 16 -36 31 -33 40 3
8 2 12 -4 9 -12 -7 -33 33 -26 50 3 8 1 17 -4 20 -11 7 -1 67 12 76 6 3 9 10
9 15 -3 33 38 67 109 90 l35 12 -35 1 c-19 0 -44 -5 -55 -11z"/>
<path d="M985 2396 c23 -15 65 -30 65 -22 0 8 -56 36 -72 36 -7 0 -4 -6 7 -14z"/>
<path d="M1080 2380 c0 -5 5 -10 10 -10 6 0 10 5 10 10 0 6 -4 10 -10 10 -5 0
-10 -4 -10 -10z"/>
<path d="M1030 2085 c-18 -10 -20 -14 -8 -15 9 0 20 5 23 10 4 6 11 7 17 4 7
-4 8 -2 4 4 -9 14 -5 15 -36 -3z"/>
<path d="M762 2078 c2 -5 8 -9 13 -9 5 0 11 4 13 9 1 5 -4 9 -13 9 -9 0 -14
-4 -13 -9z"/>
<path d="M1090 2080 c-13 -8 -12 -10 3 -10 9 0 17 5 17 10 0 12 -1 12 -20 0z"/>
<path d="M5305 2150 c-4 -6 -11 -8 -16 -5 -5 4 -9 0 -9 -7 0 -21 54 -17 58 5
4 18 -22 24 -33 7z"/>
<path d="M2085 1930 c-3 -5 1 -10 10 -10 9 0 13 5 10 10 -3 6 -8 10 -10 10 -2
0 -7 -4 -10 -10z"/>
<path d="M2128 1873 c28 -2 76 -2 105 0 28 2 5 3 -53 3 -58 0 -81 -1 -52 -3z"/>
<path d="M2318 1873 c12 -2 32 -2 45 0 12 2 2 4 -23 4 -25 0 -35 -2 -22 -4z"/>
<path d="M2795 1940 c4 -6 11 -8 16 -5 14 9 11 15 -7 15 -8 0 -12 -5 -9 -10z"/>
<path d="M2742 1925 c-10 -12 -10 -15 1 -15 8 0 20 7 27 15 17 21 -10 20 -28
0z"/>
<path d="M2820 1909 c0 -6 -5 -7 -10 -4 -6 3 -13 -1 -16 -10 -5 -13 -9 -13
-22 -3 -11 9 -14 10 -9 1 6 -9 -2 -11 -28 -9 -20 1 -38 -1 -41 -6 -3 -4 38 -8
91 -8 74 0 94 3 89 13 -6 9 -4 9 8 -1 17 -14 118 -14 118 -1 0 23 -70 31 -140
15 -22 -4 -30 -4 -22 2 11 7 11 10 -2 15 -9 4 -16 2 -16 -4z"/>
<path d="M4268 1823 c7 -3 16 -2 19 1 4 3 -2 6 -13 5 -11 0 -14 -3 -6 -6z"/>
<path d="M4348 1823 c6 -2 18 -2 25 0 6 3 1 5 -13 5 -14 0 -19 -2 -12 -5z"/>
<path d="M4415 1790 c3 -5 8 -10 11 -10 2 0 4 5 4 10 0 6 -5 10 -11 10 -5 0
-7 -4 -4 -10z"/>
<path d="M4611 1614 c0 -11 3 -14 6 -6 3 7 2 16 -1 19 -3 4 -6 -2 -5 -13z"/>
<path d="M4450 1550 c80 -11 120 -11 120 0 0 6 -35 9 -87 9 -85 -2 -86 -2 -33
-9z"/>
<path d="M4586 1546 c3 -8 1 -17 -5 -21 -17 -10 -13 -25 4 -19 16 7 21 54 5
54 -5 0 -7 -6 -4 -14z"/>
<path d="M4470 1465 c0 -21 -40 -35 -64 -23 -14 8 -17 7 -14 -4 3 -7 13 -15
24 -17 10 -2 22 -8 25 -14 4 -5 15 -7 25 -2 13 5 15 9 7 12 -19 7 -16 20 7 26
23 6 27 37 5 37 -8 0 -15 -7 -15 -15z"/>
<path d="M4511 1464 c0 -11 3 -14 6 -6 3 7 2 16 -1 19 -3 4 -6 -2 -5 -13z"/>
<path d="M4171 1184 c0 -11 3 -14 6 -6 3 7 2 16 -1 19 -3 4 -6 -2 -5 -13z"/>
<path d="M1056 1822 c-3 -5 17 -9 44 -8 28 1 50 4 50 9 0 10 -88 9 -94 -1z"/>
<path d="M2041 1184 c0 -11 3 -14 6 -6 3 7 2 16 -1 19 -3 4 -6 -2 -5 -13z"/>
<path d="M5658 1573 c7 -3 16 -2 19 1 4 3 -2 6 -13 5 -11 0 -14 -3 -6 -6z"/>
<path d="M4680 1335 c0 -8 2 -15 4 -15 2 0 6 7 10 15 3 8 1 15 -4 15 -6 0 -10
-7 -10 -15z"/>
<path d="M4616 1277 c3 -10 9 -15 12 -12 3 3 0 11 -7 18 -10 9 -11 8 -5 -6z"/>
<path d="M948 1323 c7 -3 16 -2 19 1 4 3 -2 6 -13 5 -11 0 -14 -3 -6 -6z"/>
<path d="M1190 1309 c0 -5 5 -7 10 -4 6 3 10 8 10 11 0 2 -4 4 -10 4 -5 0 -10
-5 -10 -11z"/>
<path d="M3560 1156 c0 -2 8 -10 18 -17 15 -13 16 -12 3 4 -13 16 -21 21 -21
13z"/>
<path d="M1058 673 c6 -2 18 -2 25 0 6 3 1 5 -13 5 -14 0 -19 -2 -12 -5z"/>
<path d="M1405 520 c3 -5 10 -10 16 -10 5 0 9 5 9 10 0 6 -7 10 -16 10 -8 0
-12 -4 -9 -10z"/>
<path d="M1436 502 c-3 -6 -1 -14 5 -17 15 -10 25 3 12 16 -7 7 -13 7 -17 1z"/>
</g>
</svg>
