<?xml version="1.0" standalone="no"?>
<!DOCTYPE svg PUBLIC "-//W3C//DTD SVG 20010904//EN"
 "http://www.w3.org/TR/2001/REC-SVG-20010904/DTD/svg10.dtd">
<svg version="1.0" xmlns="http://www.w3.org/2000/svg"
 width="933.000000pt" height="660.000000pt" viewBox="0 0 933.000000 660.000000"
 preserveAspectRatio="xMidYMid meet">

<g transform="translate(0.000000,660.000000) scale(0.100000,-0.100000)"
fill="#000000" stroke="none">
<path d="M0 3300 c0 -2193 3 -3300 10 -3300 7 0 10 813 10 2420 l0 2420 4635
0 4635 0 0 40 0 40 -4635 0 -4635 0 0 840 c0 553 -3 840 -10 840 -7 0 -10
-1107 -10 -3300z"/>
<path d="M9300 3300 c0 -2928 2 -3300 15 -3300 13 0 15 372 15 3300 0 2919 -2
3300 -15 3300 -13 0 -15 -381 -15 -3300z"/>
<path d="M3210 6315 c0 -198 1 -205 20 -205 18 0 20 7 20 58 0 52 11 82 30 82
4 0 29 -31 56 -70 36 -51 55 -70 72 -70 28 0 24 9 -46 99 l-50 65 55 63 c77
88 41 85 -49 -4 l-68 -67 0 127 c0 120 -1 127 -20 127 -19 0 -20 -7 -20 -205z"/>
<path d="M5290 6315 c0 -198 1 -205 20 -205 19 0 20 7 20 99 0 90 2 103 23
126 17 21 32 27 61 27 64 0 74 -21 75 -169 1 -76 3 -83 21 -83 19 0 20 7 20
100 0 118 -15 165 -57 181 -36 14 -99 5 -124 -17 -19 -17 -19 -15 -19 64 0 75
-2 82 -20 82 -19 0 -20 -7 -20 -205z"/>
<path d="M6120 6440 l0 -80 -32 20 c-61 37 -132 18 -162 -44 -20 -42 -21 -125
-2 -171 26 -61 102 -82 163 -46 26 16 32 17 37 5 3 -8 12 -14 21 -14 13 0 15
28 15 205 0 198 -1 205 -20 205 -18 0 -20 -7 -20 -80z m-24 -101 c15 -16 19
-36 19 -89 0 -85 -18 -110 -80 -110 -62 0 -80 25 -80 110 0 53 4 73 19 89 26
29 96 29 122 0z"/>
<path d="M6580 6315 c0 -198 1 -205 20 -205 19 0 20 7 20 205 0 198 -1 205
-20 205 -19 0 -20 -7 -20 -205z"/>
<path d="M2131 6483 c0 -10 22 -97 47 -193 41 -152 50 -175 68 -178 19 -3 25
12 63 145 23 81 45 155 48 163 5 14 44 -99 88 -253 14 -49 20 -58 38 -55 18 3
27 26 69 183 26 99 48 186 48 193 0 6 -9 12 -19 12 -16 0 -25 -23 -59 -162
-22 -90 -43 -156 -45 -148 -3 8 -25 81 -48 163 -39 132 -45 147 -65 147 -23 0
-31 -19 -84 -215 -12 -44 -24 -87 -27 -95 -3 -8 -14 21 -24 65 -50 210 -61
245 -81 245 -11 0 -18 -7 -17 -17z"/>
<path d="M3640 6306 l0 -196 68 0 c87 0 134 14 177 51 84 74 71 253 -23 311
-29 18 -55 23 -129 26 l-93 4 0 -196z m189 140 c39 -21 61 -58 68 -115 7 -61
-9 -109 -48 -147 -26 -25 -39 -29 -99 -32 l-70 -4 0 156 0 156 60 0 c34 0 74
-7 89 -14z"/>
<path d="M4780 6482 c-48 -24 -66 -63 -51 -113 12 -40 44 -65 115 -90 106 -38
89 -139 -24 -139 -27 0 -61 5 -75 10 -24 9 -26 8 -23 -12 4 -28 54 -42 120
-35 60 8 94 30 108 73 21 62 -11 112 -90 140 -70 25 -93 46 -93 83 0 49 25 63
104 56 53 -4 68 -2 72 10 4 10 -5 17 -31 25 -53 14 -92 12 -132 -8z"/>
<path d="M2713 6380 c-43 -26 -63 -68 -63 -132 0 -114 86 -175 186 -133 40 16
74 78 74 135 0 57 -34 119 -74 135 -48 20 -85 19 -123 -5z m117 -30 c39 -21
49 -138 16 -183 -36 -48 -122 -35 -146 22 -19 47 -8 130 20 153 24 20 80 24
110 8z"/>
<path d="M2990 6255 c0 -138 1 -145 20 -145 19 0 20 7 20 94 0 87 2 97 26 125
19 24 34 31 60 31 27 0 34 4 34 20 0 29 -51 26 -88 -5 -17 -14 -33 -25 -36
-25 -3 0 -6 11 -6 25 0 16 -6 25 -15 25 -13 0 -15 -23 -15 -145z"/>
<path d="M4073 6389 c-59 -17 -36 -46 24 -30 50 14 85 -3 94 -46 6 -32 6 -33
-28 -33 -52 0 -120 -20 -139 -41 -24 -26 -20 -87 6 -113 31 -31 110 -29 144 3
26 24 26 24 26 3 0 -13 6 -22 15 -22 24 0 22 230 -3 260 -21 26 -88 35 -139
19z m117 -172 c0 -42 -17 -65 -56 -76 -46 -13 -78 6 -82 47 -3 28 1 34 30 47
18 8 50 14 71 15 35 0 37 -1 37 -33z"/>
<path d="M4289 6378 c5 -13 32 -79 59 -146 47 -117 49 -126 37 -156 -17 -40
-36 -57 -67 -59 -44 -2 -46 -37 -3 -37 65 0 86 27 144 182 22 57 51 133 65
171 l25 67 -22 0 c-20 0 -28 -14 -61 -112 -22 -62 -42 -116 -46 -121 -4 -4
-26 47 -51 113 -38 104 -47 120 -66 120 -19 0 -21 -3 -14 -22z"/>
<path d="M5083 6380 c-48 -29 -66 -71 -61 -146 3 -53 9 -68 33 -94 32 -33 77
-46 130 -36 24 5 35 12 35 25 0 15 -7 17 -53 13 -72 -6 -98 15 -105 86 -5 59
11 107 40 123 11 6 41 9 66 7 37 -2 47 0 50 13 6 33 -86 39 -135 9z"/>
<path d="M5685 6391 c-56 -25 -88 -104 -75 -183 15 -83 107 -129 197 -98 16 6
30 17 30 25 0 12 -11 14 -53 9 -29 -4 -64 -4 -78 0 -27 7 -56 51 -56 86 0 19
6 20 100 20 94 0 100 1 100 20 0 30 -24 82 -48 103 -23 21 -87 31 -117 18z
m97 -48 c10 -9 18 -27 18 -40 0 -22 -3 -23 -75 -23 -83 0 -91 7 -54 54 24 31
81 36 111 9z"/>
<path d="M6252 6275 c3 -111 5 -127 24 -146 30 -30 90 -35 137 -11 29 16 37
17 37 6 0 -8 9 -14 20 -14 19 0 20 7 20 145 0 136 -1 145 -19 145 -17 0 -19
-10 -23 -109 -4 -131 -15 -151 -84 -151 -64 0 -74 20 -74 152 0 103 -1 108
-21 108 -20 0 -21 -4 -17 -125z"/>
<path d="M6790 6393 c-25 -10 -62 -47 -72 -73 -15 -40 -11 -128 7 -156 23 -36
74 -64 116 -64 48 0 96 17 96 35 0 12 -11 14 -53 9 -29 -4 -64 -4 -78 0 -27 7
-56 51 -56 86 0 19 6 20 100 20 73 0 100 3 100 13 0 32 -22 86 -44 106 -24 23
-87 36 -116 24z m92 -50 c10 -9 18 -27 18 -40 0 -22 -3 -23 -75 -23 -83 0 -91
7 -54 54 24 31 81 36 111 9z"/>
<path d="M7020 6255 c0 -138 1 -145 20 -145 18 0 20 7 20 80 0 120 28 170 94
170 19 0 26 5 26 20 0 36 -66 21 -102 -24 -17 -21 -18 -21 -18 12 0 25 -4 32
-20 32 -19 0 -20 -7 -20 -145z"/>
<path d="M3343 5870 c0 -36 2 -50 4 -32 2 17 2 47 0 65 -2 17 -4 3 -4 -33z"/>
<path d="M3920 5906 c0 -19 -4 -23 -19 -19 -13 3 -23 -2 -30 -16 -16 -30 2
-61 34 -59 23 2 25 6 25 60 0 32 -2 58 -5 58 -3 0 -5 -11 -5 -24z m-5 -56 c0
-28 -29 -40 -38 -15 -9 22 3 46 22 43 10 -2 16 -13 16 -28z"/>
<path d="M4458 5911 c-9 -12 -12 -35 -9 -63 l6 -43 3 38 c2 20 9 37 15 37 7 0
6 4 -3 10 -13 9 -12 12 4 25 11 8 15 15 8 15 -6 0 -17 -9 -24 -19z"/>
<path d="M4832 5870 c1 -48 2 -56 7 -30 4 26 11 35 26 35 15 0 22 -9 27 -35
l6 -35 -1 40 c-2 36 -5 40 -27 40 -18 0 -27 7 -31 25 -4 14 -7 -2 -7 -40z"/>
<path d="M5063 5875 c0 -33 2 -45 4 -27 2 18 2 45 0 60 -2 15 -4 0 -4 -33z"/>
<path d="M5193 5870 c0 -36 2 -50 4 -32 2 17 2 47 0 65 -2 17 -4 3 -4 -33z"/>
<path d="M6113 5870 c-1 -42 2 -56 6 -40 l7 25 15 -22 c7 -13 18 -23 23 -23 5
0 1 9 -10 21 -16 17 -16 23 -5 42 14 22 14 22 -7 4 -20 -19 -21 -19 -25 20 -2
23 -4 12 -4 -27z"/>
<path d="M6280 5907 c0 -18 -5 -23 -21 -23 -12 1 -26 -7 -33 -16 -15 -25 4
-53 38 -54 25 -1 26 1 26 57 0 33 -2 59 -5 59 -3 0 -5 -10 -5 -23z m-5 -57 c0
-29 -32 -41 -41 -16 -9 24 4 48 23 44 12 -2 18 -12 18 -28z"/>
<path d="M2891 5915 c0 -5 6 -19 14 -29 8 -11 15 -15 15 -10 0 6 -7 19 -15 30
-8 10 -14 15 -14 9z"/>
<path d="M2876 5874 c-8 -22 -9 -21 24 -26 17 -3 30 -1 30 4 0 4 -11 8 -25 8
-18 0 -23 4 -19 15 4 8 4 15 1 15 -3 0 -8 -7 -11 -16z"/>
<path d="M2995 5880 c-8 -12 2 -30 17 -30 7 0 6 5 -1 14 -10 12 -8 15 11 19
22 4 22 4 1 6 -12 0 -25 -3 -28 -9z"/>
<path d="M3073 5850 c0 -25 2 -35 4 -22 2 12 2 32 0 45 -2 12 -4 2 -4 -23z"/>
<path d="M3113 5850 c0 -25 2 -35 4 -22 2 12 2 32 0 45 -2 12 -4 2 -4 -23z"/>
<path d="M3143 5879 c10 -6 18 -23 18 -42 l2 -32 6 35 c9 50 38 53 44 6 l4
-36 -1 37 c-1 38 -1 38 -46 40 -33 1 -40 -1 -27 -8z"/>
<path d="M3253 5830 c0 -36 2 -50 4 -32 2 17 2 47 0 65 -2 17 -4 3 -4 -33z"/>
<path d="M3282 5883 c9 -2 19 -11 22 -19 8 -20 -3 -42 -22 -47 -15 -4 -15 -5
0 -6 10 0 22 8 28 19 14 25 -3 61 -28 59 -15 -1 -15 -2 0 -6z"/>
<path d="M3386 5881 c-4 -5 2 -7 13 -4 10 3 22 0 25 -6 5 -7 -4 -11 -23 -11
-34 0 -38 -7 -18 -34 8 -11 21 -16 33 -13 17 4 17 5 -2 6 -12 0 -24 8 -28 16
-4 11 2 15 24 15 32 0 37 9 18 28 -14 14 -35 16 -42 3z"/>
<path d="M3504 5876 c-12 -31 0 -61 26 -63 25 -3 25 -3 3 7 -15 6 -23 18 -23
34 0 18 6 26 23 29 l22 4 -23 2 c-12 0 -25 -5 -28 -13z"/>
<path d="M3600 5878 c23 -10 23 -11 5 -16 -29 -6 -45 -21 -38 -38 3 -8 13 -14
22 -14 14 1 14 2 -2 11 -21 12 -13 29 13 29 13 0 17 -5 14 -14 -3 -8 -1 -17 5
-21 7 -4 11 4 11 19 0 39 -10 56 -34 55 -19 0 -19 -1 4 -11z"/>
<path d="M3702 5878 c-26 -26 -6 -69 33 -67 17 1 17 2 -4 8 -35 9 -39 31 -6
31 20 0 26 4 23 17 -4 22 -29 28 -46 11z m38 -8 c0 -5 -9 -10 -21 -10 -11 0
-17 5 -14 10 3 6 13 10 21 10 8 0 14 -4 14 -10z"/>
<path d="M3783 5850 c0 -25 2 -35 4 -22 2 12 2 32 0 45 -2 12 -4 2 -4 -23z"/>
<path d="M3812 5884 c11 -3 18 -19 21 -42 l4 -37 -1 40 c-1 32 -5 40 -21 42
-15 1 -15 0 -3 -3z"/>
<path d="M3990 5878 c23 -10 23 -11 5 -16 -51 -11 -55 -54 -4 -50 23 2 29 7
29 24 0 37 -11 54 -34 53 -19 0 -19 -1 4 -11z m20 -37 c0 -6 -5 -13 -10 -16
-15 -9 -43 3 -35 15 8 13 45 13 45 1z"/>
<path d="M4041 5850 l1 -45 8 35 c5 20 5 39 -1 45 -5 5 -9 -8 -8 -35z"/>
<path d="M4168 5883 c12 -2 22 -8 22 -13 0 -5 -10 -10 -22 -12 -36 -5 -31 -43
5 -44 26 -1 28 1 25 35 -3 30 -7 36 -28 38 -22 1 -22 1 -2 -4z m20 -45 c-7
-19 -38 -22 -38 -4 0 10 9 16 21 16 12 0 19 -5 17 -12z"/>
<path d="M4233 5830 c0 -36 2 -50 4 -32 2 17 2 47 0 65 -2 17 -4 3 -4 -33z"/>
<path d="M4262 5883 c9 -2 19 -11 22 -19 8 -20 -3 -42 -22 -47 -15 -4 -15 -5
0 -6 10 0 22 8 28 19 14 25 -3 61 -28 59 -15 -1 -15 -2 0 -6z"/>
<path d="M4323 5830 c0 -36 2 -50 4 -32 2 17 2 47 0 65 -2 17 -4 3 -4 -33z"/>
<path d="M4352 5883 c9 -2 19 -11 22 -19 8 -20 -3 -42 -22 -47 -15 -4 -15 -5
0 -6 25 -2 42 34 28 59 -6 11 -18 19 -28 19 -15 -1 -15 -2 0 -6z"/>
<path d="M4501 5868 c-11 -29 4 -58 29 -58 27 0 44 34 30 60 -14 27 -49 26
-59 -2z m53 -3 c8 -23 -4 -45 -25 -45 -13 0 -19 7 -19 23 0 37 32 53 44 22z"/>
<path d="M4591 5845 c2 -33 3 -35 6 -10 2 17 11 35 20 42 13 10 13 12 -6 10
-18 -1 -21 -7 -20 -42z"/>
<path d="M4697 5883 c-13 -13 -7 -31 13 -36 27 -7 25 -27 -2 -28 -19 -1 -20
-2 -4 -6 10 -3 23 0 30 7 8 9 5 16 -11 30 -28 22 -28 27 -5 33 14 4 14 5 1 6
-9 0 -19 -2 -22 -6z"/>
<path d="M4772 5878 c-24 -24 -6 -69 28 -67 9 0 6 4 -7 9 -14 6 -23 18 -23 30
0 12 9 24 23 30 13 5 16 9 7 9 -9 1 -21 -4 -28 -11z"/>
<path d="M4932 5878 c-26 -26 -6 -69 33 -67 17 1 17 2 -4 8 -37 10 -38 31 -2
31 17 0 31 4 31 8 0 12 -22 32 -35 32 -6 0 -16 -5 -23 -12z m38 -8 c0 -5 -9
-10 -21 -10 -11 0 -17 5 -14 10 3 6 13 10 21 10 8 0 14 -4 14 -10z"/>
<path d="M5012 5873 c-13 -25 3 -63 25 -62 17 1 17 2 1 6 -12 3 -18 14 -18 33
0 19 6 30 18 33 16 4 16 5 0 6 -10 0 -21 -7 -26 -16z"/>
<path d="M5104 5850 c1 -26 6 -35 19 -36 11 -1 12 0 3 3 -8 2 -17 19 -19 36
-4 31 -4 31 -3 -3z"/>
<path d="M5153 5855 c0 -22 2 -30 4 -17 2 12 2 30 0 40 -3 9 -5 -1 -4 -23z"/>
<path d="M5233 5850 c0 -25 2 -35 4 -22 2 12 2 32 0 45 -2 12 -4 2 -4 -23z"/>
<path d="M5271 5846 l2 -41 6 35 c8 48 38 54 44 8 l4 -33 -1 35 c-1 31 -4 35
-28 36 -26 1 -28 -1 -27 -40z"/>
<path d="M5367 5883 c-3 -5 -5 -19 -6 -33 -1 -14 -2 -36 -4 -50 -2 -22 2 -25
28 -25 23 0 30 4 30 20 0 13 -8 21 -22 23 -28 4 -30 18 -5 25 11 2 21 14 25
26 4 17 1 21 -18 21 -13 0 -26 -3 -28 -7z m33 -18 c0 -8 -7 -15 -15 -15 -8 0
-15 7 -15 15 0 8 7 15 15 15 8 0 15 -7 15 -15z m10 -70 c0 -9 -9 -15 -25 -15
-16 0 -25 6 -25 15 0 9 9 15 25 15 16 0 25 -6 25 -15z"/>
<path d="M5488 5844 c16 -44 16 -46 -3 -61 -12 -9 -14 -14 -5 -11 16 4 44 56
54 98 4 17 0 13 -11 -10 l-16 -35 -13 33 c-21 49 -25 38 -6 -14z"/>
<path d="M5560 5871 c-15 -29 4 -63 33 -59 18 2 22 10 22 38 0 28 -4 36 -22
38 -14 2 -26 -4 -33 -17z m50 -21 c0 -23 -5 -30 -19 -30 -21 0 -33 22 -25 45
4 8 15 15 25 15 14 0 19 -7 19 -30z"/>
<path d="M5654 5850 c1 -31 4 -35 29 -36 25 -1 27 1 26 40 l-2 41 -6 -35 c-8
-48 -38 -54 -44 -8 l-4 33 1 -35z"/>
<path d="M5741 5845 c2 -33 3 -35 6 -10 2 17 11 35 20 42 13 10 13 12 -6 10
-18 -1 -21 -7 -20 -42z"/>
<path d="M5836 5865 c12 -56 22 -63 35 -27 8 25 14 30 20 20 5 -7 9 -8 9 -3 0
6 -4 16 -9 24 -7 11 -13 7 -24 -20 -11 -25 -16 -29 -16 -14 -1 11 -6 27 -11
35 -8 11 -9 7 -4 -15z"/>
<path d="M5926 5875 c-3 -9 -6 -22 -5 -28 0 -7 5 -1 10 12 5 13 8 26 5 28 -2
2 -6 -3 -10 -12z"/>
<path d="M5960 5875 c-26 -31 13 -82 44 -56 19 16 21 42 4 59 -16 16 -33 15
-48 -3z m45 -25 c0 -29 -32 -41 -41 -16 -9 24 4 48 23 44 12 -2 18 -12 18 -28z"/>
<path d="M6051 5845 c2 -33 3 -35 6 -10 2 17 11 35 20 42 13 10 13 12 -6 10
-18 -1 -21 -7 -20 -42z"/>
<path d="M6330 5886 c0 -2 9 -6 20 -9 11 -3 18 -1 14 4 -5 9 -34 13 -34 5z"/>
<path d="M6391 5888 c-1 -4 6 -26 16 -49 16 -40 15 -42 -2 -55 -10 -8 -14 -14
-8 -14 16 0 28 20 46 73 18 54 14 63 -7 15 l-13 -33 -16 35 c-8 19 -16 32 -16
28z"/>
<path d="M6320 5845 c-14 -17 -5 -35 18 -34 15 1 15 2 -1 6 -24 6 -16 26 14
34 22 6 22 7 3 8 -12 1 -27 -6 -34 -14z"/>
<path d="M3035 5838 c6 -14 1 -18 -21 -19 -26 -2 -26 -2 -5 -6 30 -6 50 12 32
30 -10 10 -11 9 -6 -5z"/>
<path d="M2856 5823 c-6 -14 -5 -15 5 -6 7 7 10 15 7 18 -3 3 -9 -2 -12 -12z"/>
<path d="M5900 5826 c0 -9 5 -16 10 -16 6 0 10 4 10 9 0 6 -4 13 -10 16 -5 3
-10 -1 -10 -9z"/>
<path d="M5613 5600 c0 -36 2 -50 4 -32 2 17 2 47 0 65 -2 17 -4 3 -4 -33z"/>
<path d="M6053 5605 c0 -33 2 -45 4 -27 2 18 2 45 0 60 -2 15 -4 0 -4 -33z"/>
<path d="M6290 5637 c0 -18 -5 -23 -21 -23 -12 1 -26 -7 -33 -16 -15 -25 4
-53 38 -54 25 -1 26 1 26 57 0 33 -2 59 -5 59 -3 0 -5 -10 -5 -23z m-5 -57 c0
-16 -6 -26 -18 -28 -19 -4 -32 20 -23 44 9 25 41 13 41 -16z"/>
<path d="M2591 5593 c1 -32 4 -46 6 -31 3 18 12 28 26 31 l22 4 -22 2 c-35 2
-31 39 5 44 25 4 25 4 -5 6 l-33 1 1 -57z"/>
<path d="M2806 5634 c-3 -8 -2 -13 3 -10 5 4 22 -14 38 -39 15 -25 31 -45 36
-45 4 0 6 26 5 58 l-1 57 -6 -50 -6 -50 -28 48 c-15 26 -29 47 -31 47 -2 0 -7
-7 -10 -16z"/>
<path d="M3135 5640 c-3 -5 -2 -10 4 -10 5 0 12 -21 14 -47 3 -47 3 -47 5 10
2 52 -8 72 -23 47z"/>
<path d="M3206 5642 c-3 -5 6 -7 19 -4 18 3 25 0 25 -12 0 -9 -7 -19 -17 -23
-14 -5 -13 -8 6 -15 30 -11 22 -31 -15 -39 -29 -7 -29 -7 -3 -8 30 -1 55 22
43 41 -4 7 -8 24 -8 38 -1 18 -7 26 -23 28 -11 2 -24 -1 -27 -6z"/>
<path d="M3336 5642 c-3 -5 4 -8 16 -8 33 1 32 -19 -3 -58 l-31 -36 38 1 c36
1 37 2 10 8 -27 5 -28 7 -12 20 29 24 39 50 25 67 -13 15 -35 19 -43 6z"/>
<path d="M3422 5638 c-17 -17 -15 -73 3 -88 34 -28 68 27 46 76 -12 26 -30 31
-49 12z m44 -22 c8 -35 -4 -68 -24 -64 -17 3 -28 48 -18 74 9 23 35 16 42 -10z"/>
<path d="M3506 5642 c-3 -5 4 -8 16 -8 33 1 32 -19 -3 -58 l-31 -36 38 1 c36
1 37 2 10 8 -27 5 -28 7 -12 20 29 24 39 50 25 67 -13 15 -35 19 -43 6z"/>
<path d="M3592 5638 c-17 -17 -15 -73 3 -88 34 -28 68 27 46 76 -12 26 -30 31
-49 12z m44 -22 c8 -35 -4 -68 -24 -64 -17 3 -28 48 -18 74 9 23 35 16 42 -10z"/>
<path d="M3716 5642 c-3 -5 4 -8 16 -8 33 1 32 -19 -3 -58 l-31 -36 38 1 c36
1 37 2 10 8 -27 5 -28 7 -12 20 29 24 39 50 25 67 -13 15 -35 19 -43 6z"/>
<path d="M3796 5642 c-3 -5 6 -7 19 -4 20 3 25 0 25 -17 0 -13 -7 -21 -17 -22
-13 0 -12 -3 5 -10 31 -12 23 -32 -14 -40 -29 -7 -29 -7 -3 -8 30 -1 55 22 43
41 -4 7 -8 24 -8 38 -1 18 -7 26 -23 28 -11 2 -24 -1 -27 -6z"/>
<path d="M3926 5642 c-3 -5 6 -7 19 -4 33 6 34 -25 3 -38 l-23 -9 23 0 c34 -1
30 -38 -5 -44 -27 -5 -27 -5 2 -3 29 1 30 2 30 51 0 44 -3 50 -22 53 -11 2
-24 -1 -27 -6z"/>
<path d="M4028 5619 c-34 -44 -34 -49 -4 -49 15 0 26 -7 29 -17 4 -17 5 -17 6
0 0 9 7 17 14 17 9 0 9 2 0 8 -6 4 -13 23 -15 42 l-3 35 -27 -36z m22 -14 c0
-18 -5 -25 -20 -25 -20 0 -20 1 -4 25 9 14 18 25 20 25 2 0 4 -11 4 -25z"/>
<path d="M4136 5642 c-3 -5 6 -7 19 -4 33 6 34 -25 3 -38 -13 -5 -16 -9 -8 -9
25 -1 42 15 38 35 -3 20 -42 32 -52 16z"/>
<path d="M4227 5643 c-4 -3 -7 -11 -7 -17 0 -6 4 -5 9 3 5 8 16 11 26 8 23 -9
17 -80 -7 -85 -12 -2 -20 7 -27 30 -6 22 -10 26 -10 12 -1 -11 5 -29 13 -40
20 -27 50 -7 54 35 5 45 -27 78 -51 54z"/>
<path d="M4356 5634 c-36 -35 -7 -98 43 -92 20 2 27 9 29 31 3 23 0 27 -20 26
-17 -1 -18 -3 -5 -6 26 -7 22 -43 -6 -43 -29 0 -47 18 -47 46 0 26 16 40 50
47 l25 4 -27 2 c-15 0 -34 -6 -42 -15z"/>
<path d="M4478 5596 c28 -56 35 -59 46 -16 l6 25 -12 -23 c-11 -23 -12 -23
-28 19 -10 24 -22 45 -28 47 -6 2 1 -21 16 -52z"/>
<path d="M4536 5634 c-4 -9 -4 -19 -1 -22 3 -3 6 1 7 9 0 8 4 -8 8 -36 l7 -50
1 58 c2 55 -9 75 -22 41z"/>
<path d="M4592 5643 c13 -3 18 -18 21 -56 l3 -52 2 52 c2 40 6 53 20 56 9 3
-1 5 -23 5 -22 0 -32 -2 -23 -5z"/>
<path d="M4719 5626 c-14 -29 -4 -75 16 -83 23 -8 45 16 45 51 0 55 -41 76
-61 32z m46 -31 c0 -45 -28 -63 -40 -25 -10 33 3 72 23 68 13 -2 17 -13 17
-43z"/>
<path d="M4815 5634 c-20 -21 -16 -73 7 -88 14 -8 22 -7 35 7 22 22 6 52 -26
51 -27 -1 -22 17 10 33 17 9 19 13 7 13 -9 0 -24 -7 -33 -16z m43 -57 c4 -20
-25 -34 -40 -19 -15 15 -1 44 19 40 10 -2 19 -11 21 -21z"/>
<path d="M4893 5635 c-3 -9 -3 -19 1 -22 3 -4 6 1 6 11 0 11 6 16 18 14 24 -5
25 -81 0 -86 -9 -2 -18 5 -21 15 -4 17 -5 17 -6 0 -1 -23 25 -33 44 -17 18 15
20 71 3 88 -17 17 -37 15 -45 -3z"/>
<path d="M4982 5638 c-17 -17 -15 -73 3 -88 34 -28 68 27 46 76 -12 26 -30 31
-49 12z m44 -22 c8 -35 -4 -68 -24 -64 -17 3 -28 48 -18 74 9 23 35 16 42 -10z"/>
<path d="M5103 5635 c-3 -9 -3 -18 -1 -21 3 -3 8 4 11 16 6 23 -1 27 -10 5z"/>
<path d="M5157 5632 c-33 -37 -10 -94 36 -91 22 2 22 2 -1 6 -50 10 -50 86 0
96 21 4 21 4 2 6 -11 0 -28 -7 -37 -17z"/>
<path d="M5693 5639 c-16 -16 -5 -39 24 -50 30 -11 26 -31 -8 -40 -22 -6 -22
-7 -3 -8 12 -1 28 6 35 15 11 14 8 20 -21 44 -26 21 -31 30 -20 34 43 14 45
14 25 15 -12 1 -26 -4 -32 -10z"/>
<path d="M6367 5643 c19 -4 23 -12 26 -56 l3 -52 2 52 c2 40 6 53 20 56 9 3
-3 5 -28 4 -25 0 -35 -2 -23 -4z"/>
<path d="M5412 5623 c-9 -8 -9 -13 -2 -13 6 0 10 -8 9 -17 -3 -39 2 -53 19
-52 10 0 12 3 5 6 -15 5 -18 60 -4 65 5 2 4 8 -3 14 -8 8 -15 7 -24 -3z"/>
<path d="M5768 5627 c-7 -22 7 -80 20 -83 7 -1 8 0 2 3 -12 6 -13 60 -1 65 5
2 3 8 -4 15 -10 9 -14 9 -17 0z"/>
<path d="M6715 5585 c0 -29 3 -51 8 -48 4 2 7 24 7 48 0 24 -3 46 -7 48 -5 3
-8 -19 -8 -48z"/>
<path d="M2660 5581 c0 -23 2 -41 4 -41 8 0 12 71 4 76 -4 3 -8 -13 -8 -35z"/>
<path d="M2922 5608 c-28 -28 -1 -75 38 -63 33 11 21 75 -15 75 -6 0 -16 -5
-23 -12z m43 -28 c0 -16 -6 -26 -18 -28 -19 -4 -32 20 -23 44 9 25 41 13 41
-16z"/>
<path d="M3005 5583 c23 -55 27 -57 40 -13 7 24 6 24 -7 6 -14 -18 -15 -18
-26 12 -6 18 -14 32 -17 32 -3 0 2 -17 10 -37z"/>
<path d="M3880 5609 c0 -5 5 -7 10 -4 6 3 10 8 10 11 0 2 -4 4 -10 4 -5 0 -10
-5 -10 -11z"/>
<path d="M4090 5609 c0 -5 5 -7 10 -4 6 3 10 8 10 11 0 2 -4 4 -10 4 -5 0 -10
-5 -10 -11z"/>
<path d="M5240 5600 c-15 -28 4 -60 33 -59 l22 2 -22 4 c-12 2 -24 11 -27 19
-4 10 3 14 24 14 32 0 37 9 18 28 -18 18 -36 15 -48 -8z m45 0 c3 -5 -3 -10
-14 -10 -12 0 -21 5 -21 10 0 6 6 10 14 10 8 0 18 -4 21 -10z"/>
<path d="M5321 5575 l2 -40 6 35 c4 26 11 35 26 35 15 0 22 -9 26 -35 6 -34 6
-34 8 -5 1 41 -10 55 -42 53 -25 -2 -27 -6 -26 -43z"/>
<path d="M5471 5575 c2 -33 3 -35 6 -10 2 17 11 35 20 42 13 10 13 12 -6 10
-18 -1 -21 -7 -20 -42z"/>
<path d="M5540 5616 c0 -2 9 -6 20 -9 11 -3 18 -1 14 4 -5 9 -34 13 -34 5z"/>
<path d="M5848 5613 c26 -5 29 -20 5 -26 -16 -4 -16 -5 0 -6 22 -1 17 -25 -5
-29 -9 -2 -19 5 -22 15 -4 15 -5 15 -3 -2 2 -14 10 -20 30 -21 26 -1 28 1 25
35 -3 30 -7 36 -28 38 -22 1 -22 1 -2 -4z"/>
<path d="M5911 5576 l2 -41 6 35 c8 48 38 54 44 8 l4 -33 -1 35 c-1 31 -4 35
-28 36 -26 1 -28 -1 -27 -40z"/>
<path d="M6004 5606 c-9 -24 0 -61 16 -62 9 0 10 1 3 3 -20 7 -16 61 5 66 16
4 16 5 -1 6 -10 0 -20 -5 -23 -13z"/>
<path d="M6120 5608 c23 -10 23 -11 5 -16 -29 -6 -45 -21 -38 -38 3 -8 13 -14
22 -14 14 1 14 2 -2 11 -21 13 -13 29 15 29 14 0 18 -5 15 -15 -4 -8 -2 -17 3
-20 11 -7 13 34 4 59 -3 9 -16 16 -28 15 -19 0 -19 -1 4 -11z"/>
<path d="M6453 5580 c0 -25 2 -35 4 -22 2 12 2 32 0 45 -2 12 -4 2 -4 -23z"/>
<path d="M6493 5580 c0 -25 2 -35 4 -22 2 12 2 32 0 45 -2 12 -4 2 -4 -23z"/>
<path d="M6523 5613 c12 -3 17 -15 18 -41 l2 -37 6 35 c9 50 38 53 44 6 l4
-36 -1 37 c-1 38 -1 38 -46 39 -25 0 -37 -1 -27 -3z"/>
<path d="M6632 5608 c-26 -26 -6 -69 33 -67 17 1 17 2 -4 8 -37 10 -38 31 -2
31 17 0 31 4 31 8 0 12 -22 32 -35 32 -6 0 -16 -5 -23 -12z m43 -8 c4 -6 -5
-10 -20 -10 -15 0 -24 4 -20 10 3 6 12 10 20 10 8 0 17 -4 20 -10z"/>
<path d="M5091 5585 c0 -11 4 -27 9 -35 9 -13 10 -13 9 0 0 8 -4 24 -9 35 l-9
20 0 -20z"/>
<path d="M4181 5573 c-1 -16 -9 -23 -28 -26 l-28 -4 28 -2 c28 -1 43 17 34 41
-3 7 -6 3 -6 -9z"/>
<path d="M4668 5583 c6 -2 18 -2 25 0 6 3 1 5 -13 5 -14 0 -19 -2 -12 -5z"/>
<path d="M5530 5575 c-14 -17 -5 -35 18 -35 15 1 15 2 -1 11 -9 6 -15 14 -12
20 10 15 33 10 38 -8 4 -14 5 -12 6 5 1 26 -29 31 -49 7z"/>
<path d="M3880 5550 c0 -5 5 -10 10 -10 6 0 10 5 10 10 0 6 -4 10 -10 10 -5 0
-10 -4 -10 -10z"/>
<path d="M4090 5550 c0 -5 5 -10 11 -10 5 0 7 5 4 10 -3 6 -8 10 -11 10 -2 0
-4 -4 -4 -10z"/>
<path d="M678 4593 c6 -2 12 -17 12 -32 0 -26 -2 -27 -39 -24 -22 1 -42 -1
-45 -6 -4 -5 3 -7 13 -4 15 4 20 -1 24 -24 l4 -28 2 28 c0 17 7 27 16 27 8 0
16 -1 17 -2 0 -2 4 -120 8 -263 l6 -260 2 298 c2 277 1 297 -15 296 -11 0 -13
-3 -5 -6z"/>
<path d="M6390 4300 l0 -290 144 0 144 0 31 31 31 31 0 229 c0 216 -1 230 -20
249 -30 30 -48 24 -19 -6 23 -25 24 -30 27 -217 2 -106 0 -208 -5 -227 -6 -22
-21 -43 -43 -57 -30 -21 -45 -23 -156 -23 l-124 0 0 280 0 279 123 4 122 3
-127 2 -128 2 0 -290z"/>
<path d="M436 4561 c-4 -5 3 -7 14 -4 23 6 26 13 6 13 -8 0 -17 -4 -20 -9z"/>
<path d="M471 4527 c-1 -19 -8 -31 -23 -37 -16 -6 -18 -9 -7 -9 24 -1 41 24
36 51 -4 20 -4 20 -6 -5z"/>
<path d="M548 4533 c7 -3 16 -2 19 1 4 3 -2 6 -13 5 -11 0 -14 -3 -6 -6z"/>
<path d="M430 4520 c0 -6 7 -10 15 -10 8 0 15 2 15 4 0 2 -7 6 -15 10 -8 3
-15 1 -15 -4z"/>
<path d="M530 4511 c0 -5 9 -7 20 -4 11 3 20 7 20 9 0 2 -9 4 -20 4 -11 0 -20
-4 -20 -9z"/>
<path d="M545 4490 c-16 -7 -17 -9 -3 -9 9 -1 20 4 23 9 7 11 7 11 -20 0z"/>
<path d="M687 3992 c10 -6 13 -81 16 -297 l2 -290 3 298 c2 277 1 297 -15 297
-13 0 -14 -3 -6 -8z"/>
<path d="M6390 3700 l0 -290 140 0 c223 0 220 -4 220 289 0 211 -7 261 -37
261 -7 0 -13 5 -13 11 0 5 -4 8 -9 4 -5 -3 -12 -1 -16 5 -4 6 -62 10 -146 10
l-139 0 0 -290z m309 251 l31 -29 0 -221 0 -220 -25 -25 c-32 -32 -65 -38
-195 -34 l-105 3 -3 278 -2 277 134 0 134 0 31 -29z"/>
<path d="M409 3963 c-8 -10 -9 -14 -2 -10 8 5 13 -5 16 -30 3 -35 4 -34 5 10
2 52 1 55 -19 30z"/>
<path d="M476 3971 c-3 -5 2 -8 12 -7 13 1 17 -7 17 -29 0 -23 -4 -30 -19 -28
-13 1 -15 -2 -7 -10 14 -14 41 9 41 37 0 33 -31 59 -44 37z"/>
<path d="M461 3934 c0 -11 3 -14 6 -6 3 7 2 16 -1 19 -3 4 -6 -2 -5 -13z"/>
<path d="M554 3941 c19 -7 19 -8 -3 -14 -28 -7 -23 -31 7 -35 19 -3 22 1 22
27 0 26 -4 31 -22 30 -21 0 -22 -1 -4 -8z m16 -31 c0 -5 -7 -10 -15 -10 -8 0
-15 5 -15 10 0 6 7 10 15 10 8 0 15 -4 15 -10z"/>
<path d="M602 3920 c0 -19 2 -27 5 -17 2 9 2 25 0 35 -3 9 -5 1 -5 -18z"/>
<path d="M626 3943 c7 -4 14 -19 17 -33 4 -22 5 -21 4 4 -1 17 -9 31 -17 33
-10 3 -11 2 -4 -4z"/>
<path d="M666 3942 c7 -4 14 -18 17 -32 4 -21 4 -20 6 8 1 24 -3 32 -16 32
-12 0 -14 -3 -7 -8z"/>
<path d="M7246 3831 c-3 -4 6 -6 19 -3 14 2 25 6 25 8 0 8 -39 4 -44 -5z"/>
<path d="M7313 3795 c0 -27 2 -38 4 -22 2 15 2 37 0 50 -2 12 -4 0 -4 -28z"/>
<path d="M7523 3833 c12 -3 17 -16 19 -46 l1 -42 4 40 c3 22 10 43 16 47 7 4
-4 7 -23 7 -19 -1 -27 -3 -17 -6z"/>
<path d="M7873 3833 c9 -2 25 -2 35 0 9 3 1 5 -18 5 -19 0 -27 -2 -17 -5z"/>
<path d="M8080 3825 c0 -8 -9 -15 -19 -15 -21 0 -33 -22 -25 -45 4 -8 13 -15
22 -15 13 0 13 2 -3 13 -19 15 -13 37 10 37 7 0 16 -12 18 -27 2 -17 5 -10 6
20 0 26 -1 47 -4 47 -3 0 -5 -7 -5 -15z"/>
<path d="M8273 3795 c0 -27 2 -38 4 -22 2 15 2 37 0 50 -2 12 -4 0 -4 -28z"/>
<path d="M7231 3794 c0 -11 3 -14 6 -6 3 7 2 16 -1 19 -3 4 -6 -2 -5 -13z"/>
<path d="M7342 3780 c0 -19 2 -27 5 -17 2 9 2 25 0 35 -3 9 -5 1 -5 -18z"/>
<path d="M7376 3801 c-4 -5 3 -7 14 -4 23 6 26 13 6 13 -8 0 -17 -4 -20 -9z"/>
<path d="M7446 3795 c-11 -8 -17 -17 -14 -20 2 -3 13 4 23 15 21 23 18 25 -9
5z"/>
<path d="M7615 3799 c-4 -6 -5 -12 -2 -15 2 -3 7 2 10 11 7 17 1 20 -8 4z"/>
<path d="M7682 3780 c0 -19 2 -27 5 -17 2 9 2 25 0 35 -3 9 -5 1 -5 -18z"/>
<path d="M7714 3795 c-9 -23 3 -45 23 -44 17 1 17 2 1 6 -10 2 -18 13 -18 23
0 10 8 21 18 23 16 4 16 5 -1 6 -10 0 -20 -6 -23 -14z"/>
<path d="M7934 3795 c-13 -32 23 -63 40 -36 4 5 -3 7 -14 4 -16 -4 -20 0 -20
17 0 17 4 21 20 17 11 -3 18 -1 14 4 -8 14 -34 11 -40 -6z"/>
<path d="M8112 3780 c0 -19 2 -27 5 -17 2 9 2 25 0 35 -3 9 -5 1 -5 -18z"/>
<path d="M8148 3803 c6 -2 18 -2 25 0 6 3 1 5 -13 5 -14 0 -19 -2 -12 -5z"/>
<path d="M8207 3803 c-3 -5 5 -8 18 -8 13 0 21 3 18 8 -2 4 -10 7 -18 7 -8 0
-16 -3 -18 -7z"/>
<path d="M8318 3803 c7 -3 16 -2 19 1 4 3 -2 6 -13 5 -11 0 -14 -3 -6 -6z"/>
<path d="M7760 3782 c0 -14 23 -32 40 -31 8 0 4 5 -10 11 l-25 11 30 7 30 8
-32 1 c-18 0 -33 -3 -33 -7z"/>
<path d="M8155 3778 c19 -11 19 -11 0 -19 -16 -6 -17 -8 -3 -8 23 -1 34 19 17
30 -8 5 -18 9 -24 9 -5 -1 -1 -6 10 -12z"/>
<path d="M8318 3783 c7 -3 16 -2 19 1 4 3 -2 6 -13 5 -11 0 -14 -3 -6 -6z"/>
<path d="M7590 3766 c0 -9 5 -16 10 -16 6 0 10 4 10 9 0 6 -4 13 -10 16 -5 3
-10 -1 -10 -9z"/>
<path d="M8240 3771 c0 -8 -8 -11 -20 -8 -11 3 -18 1 -14 -4 3 -5 11 -9 19 -9
16 0 30 18 21 27 -3 4 -6 1 -6 -6z"/>
<path d="M8385 3758 c-4 -13 -13 -26 -19 -30 -8 -5 -7 -8 2 -8 12 0 37 49 28
57 -2 3 -7 -6 -11 -19z"/>
<path d="M7248 3758 c6 -6 18 -8 28 -6 14 3 12 5 -9 10 -19 3 -25 2 -19 -4z"/>
<path d="M7378 3758 c5 -5 16 -8 23 -6 8 3 3 7 -10 11 -17 4 -21 3 -13 -5z"/>
<path d="M8315 3760 c-16 -7 -17 -9 -3 -9 9 -1 20 4 23 9 7 11 7 11 -20 0z"/>
<path d="M687 3392 c10 -6 13 -81 16 -297 l2 -290 3 298 c2 277 1 297 -15 297
-13 0 -14 -3 -6 -8z"/>
<path d="M6390 3100 l0 -290 146 0 146 0 34 34 34 34 0 216 c0 216 -7 266 -37
266 -17 0 -17 -15 2 -30 12 -10 15 -49 15 -231 l0 -218 -25 -26 c-25 -24 -29
-25 -166 -25 l-140 0 3 280 c2 154 0 280 -4 280 -5 0 -8 -130 -8 -290z"/>
<path d="M6523 3383 c26 -2 67 -2 90 0 23 2 2 3 -48 3 -49 0 -68 -1 -42 -3z"/>
<path d="M6670 3380 c8 -5 20 -10 25 -10 6 0 3 5 -5 10 -8 5 -19 10 -25 10 -5
0 -3 -5 5 -10z"/>
<path d="M409 3363 c-8 -10 -9 -14 -2 -10 8 5 13 -5 16 -30 3 -35 4 -34 5 10
2 52 1 55 -19 30z"/>
<path d="M477 3373 c-10 -10 -8 -25 2 -18 6 3 12 -12 14 -32 4 -32 4 -30 4 10
-1 45 -6 55 -20 40z"/>
<path d="M554 3341 c19 -7 19 -8 -3 -14 -28 -7 -23 -31 7 -35 19 -3 22 1 22
27 0 26 -4 31 -22 30 -21 0 -22 -1 -4 -8z m16 -31 c0 -5 -7 -10 -15 -10 -8 0
-15 5 -15 10 0 6 7 10 15 10 8 0 15 -4 15 -10z"/>
<path d="M602 3320 c0 -19 2 -27 5 -17 2 9 2 25 0 35 -3 9 -5 1 -5 -18z"/>
<path d="M626 3343 c7 -4 14 -19 17 -33 4 -22 5 -21 4 4 -1 17 -9 31 -17 33
-10 3 -11 2 -4 -4z"/>
<path d="M666 3342 c7 -4 14 -18 17 -32 4 -21 4 -20 6 8 1 24 -3 32 -16 32
-12 0 -14 -3 -7 -8z"/>
<path d="M687 2792 c10 -6 13 -81 16 -297 l2 -290 3 298 c2 277 1 297 -15 297
-13 0 -14 -3 -6 -8z"/>
<path d="M6390 2500 l0 -290 146 0 146 0 34 34 34 34 0 217 c0 289 -2 292
-169 294 -58 1 -103 -1 -100 -3 2 -3 50 -6 106 -7 146 -4 141 5 143 -271 1
-215 -3 -254 -23 -241 -6 3 -7 1 -3 -5 7 -11 -6 -17 -27 -13 -5 1 -6 -3 -2 -9
4 -7 -41 -10 -135 -10 l-141 0 3 280 c2 154 0 280 -4 280 -5 0 -8 -130 -8
-290z"/>
<path d="M409 2763 c-8 -10 -9 -14 -2 -10 8 5 13 -5 16 -30 3 -35 4 -34 5 10
2 52 1 55 -19 30z"/>
<path d="M470 2776 c0 -2 9 -6 20 -9 11 -3 20 -1 20 4 0 5 -9 9 -20 9 -11 0
-20 -2 -20 -4z"/>
<path d="M554 2741 c19 -7 19 -8 -3 -14 -28 -7 -23 -31 7 -35 19 -3 22 1 22
27 0 26 -4 31 -22 30 -21 0 -22 -1 -4 -8z m16 -31 c0 -5 -7 -10 -15 -10 -8 0
-15 5 -15 10 0 6 7 10 15 10 8 0 15 -4 15 -10z"/>
<path d="M602 2720 c0 -19 2 -27 5 -17 2 9 2 25 0 35 -3 9 -5 1 -5 -18z"/>
<path d="M626 2743 c7 -4 14 -19 17 -33 4 -22 5 -21 4 4 -1 17 -9 31 -17 33
-10 3 -11 2 -4 -4z"/>
<path d="M666 2742 c7 -4 14 -18 17 -32 4 -21 4 -20 6 8 1 24 -3 32 -16 32
-12 0 -14 -3 -7 -8z"/>
<path d="M475 2710 c-18 -20 -17 -20 16 -19 24 1 28 3 11 6 -19 4 -21 7 -11
19 18 22 5 17 -16 -6z"/>
<path d="M687 2192 c10 -6 13 -81 16 -297 l2 -290 3 298 c2 277 1 297 -15 297
-13 0 -14 -3 -6 -8z"/>
<path d="M6390 1905 l0 -295 145 0 145 0 32 29 33 29 3 230 3 229 -31 32 c-17
17 -37 31 -43 31 -7 -1 -6 -5 3 -13 48 -37 50 -50 50 -277 l0 -216 -28 -27
c-28 -27 -30 -27 -165 -27 l-137 0 0 281 0 280 125 -3 c69 -2 125 0 125 5 0 4
-58 7 -130 7 l-130 0 0 -295z"/>
<path d="M439 2163 c-8 -10 -9 -14 -2 -10 8 5 13 -5 16 -30 3 -35 4 -34 5 10
2 52 1 55 -19 30z"/>
<path d="M537 2143 c-4 -3 -6 -25 -6 -47 1 -23 3 -33 6 -23 2 9 11 17 18 17 8
0 16 4 19 9 4 5 -3 7 -14 4 -16 -4 -20 0 -20 17 0 17 4 21 20 17 11 -3 18 -1
14 4 -6 11 -28 12 -37 2z"/>
<path d="M602 2120 c0 -19 2 -27 5 -17 2 9 2 25 0 35 -3 9 -5 1 -5 -18z"/>
<path d="M626 2143 c7 -4 14 -19 17 -33 4 -22 5 -21 4 4 -1 17 -9 31 -17 33
-10 3 -11 2 -4 -4z"/>
<path d="M666 2142 c7 -4 14 -18 17 -32 4 -21 4 -20 6 8 1 24 -3 32 -16 32
-12 0 -14 -3 -7 -8z"/>
<path d="M687 1592 c10 -6 13 -81 16 -297 l2 -290 3 298 c2 277 1 297 -15 297
-13 0 -14 -3 -6 -8z"/>
<path d="M6390 1305 l0 -295 135 0 c101 0 143 4 165 15 58 30 60 39 60 283 l0
224 -31 29 c-32 30 -49 36 -49 18 0 -5 4 -8 8 -5 5 3 19 -8 30 -24 21 -28 22
-40 22 -248 0 -216 0 -219 -23 -240 -13 -12 -27 -19 -30 -15 -4 3 -7 1 -7 -5
0 -9 -39 -12 -135 -12 l-135 0 0 281 0 281 130 -4 c72 -2 130 0 130 3 0 4 -61
8 -135 8 l-135 2 0 -296z"/>
<path d="M448 1573 c7 -3 16 -2 19 1 4 3 -2 6 -13 5 -11 0 -14 -3 -6 -6z"/>
<path d="M537 1543 c-4 -3 -6 -25 -6 -47 1 -23 3 -33 6 -23 2 9 11 17 18 17 8
0 16 4 19 9 4 5 -3 7 -14 4 -16 -4 -20 0 -20 17 0 17 4 21 20 17 11 -3 18 -1
14 4 -6 11 -28 12 -37 2z"/>
<path d="M601 1516 c1 -28 2 -29 8 -7 9 34 29 37 34 6 4 -24 4 -24 3 2 -1 22
-6 28 -23 29 -19 1 -23 -4 -22 -30z"/>
<path d="M666 1542 c7 -4 14 -18 17 -32 4 -21 4 -20 6 8 1 24 -3 32 -16 32
-12 0 -14 -3 -7 -8z"/>
<path d="M447 1522 c-24 -26 -21 -32 11 -31 24 2 25 2 4 6 -23 4 -23 5 -6 24
9 10 15 19 12 19 -3 0 -12 -8 -21 -18z"/>
<path d="M6551 1377 c-8 -10 -7 -14 2 -14 8 0 14 6 14 14 0 7 -1 13 -2 13 -2
0 -8 -6 -14 -13z"/>
<path d="M698 808 c4 -368 8 -401 10 -105 1 163 -1 297 -5 297 -5 0 -7 -87 -5
-192z"/>
<path d="M6392 708 l3 -293 132 -3 c220 -4 223 -1 223 298 0 126 -4 219 -10
231 -6 10 -28 28 -50 39 -33 17 -59 20 -170 20 l-130 0 2 -292z m281 270 c58
-30 58 -33 55 -276 l-3 -224 -28 -24 c-27 -23 -35 -24 -163 -24 l-134 0 0 280
0 280 126 0 c76 0 134 -5 147 -12z"/>
<path d="M448 973 c26 -5 28 -18 5 -32 -10 -6 -13 -11 -7 -11 17 0 37 27 29
40 -3 5 -16 9 -28 9 -22 -2 -22 -2 1 -6z"/>
<path d="M537 943 c-4 -3 -6 -25 -6 -47 1 -23 3 -33 6 -23 2 9 11 17 18 17 8
0 16 4 19 9 4 5 -3 7 -14 4 -16 -4 -20 0 -20 17 0 17 4 21 20 17 11 -3 18 -1
14 4 -6 11 -28 12 -37 2z"/>
<path d="M602 920 c0 -19 2 -27 5 -17 2 9 2 25 0 35 -3 9 -5 1 -5 -18z"/>
<path d="M626 943 c7 -4 14 -19 17 -33 4 -22 5 -21 4 4 -1 17 -9 31 -17 33
-10 3 -11 2 -4 -4z"/>
<path d="M666 942 c7 -4 14 -18 17 -32 4 -21 4 -20 6 8 1 24 -3 32 -16 32 -12
0 -14 -3 -7 -8z"/>
<path d="M470 917 c0 -8 -10 -18 -22 -20 l-23 -4 23 -2 c22 -1 41 23 28 36 -3
4 -6 -1 -6 -10z"/>
<path d="M698 268 c4 -249 8 -273 10 -70 1 111 -1 202 -5 202 -5 0 -7 -60 -5
-132z"/>
<path d="M6392 198 l3 -203 2 198 3 197 136 0 c100 0 133 -3 128 -12 -4 -6 -3
-8 4 -5 13 9 44 -2 37 -13 -3 -4 2 -13 10 -20 12 -10 15 -43 15 -176 0 -103 4
-164 10 -164 6 0 10 61 10 163 0 178 -4 193 -60 222 -22 11 -64 15 -165 15
l-135 0 2 -202z"/>
<path d="M531 303 c1 -27 3 -40 6 -30 2 9 11 17 18 17 8 0 16 4 19 9 4 5 -3 7
-14 4 -16 -4 -20 0 -20 17 0 17 4 21 20 17 11 -3 18 -1 14 4 -3 5 -14 9 -25 9
-16 0 -19 -7 -18 -47z"/>
<path d="M601 316 c1 -28 2 -29 8 -7 9 34 29 37 34 6 4 -24 4 -24 3 2 -1 22
-6 28 -23 29 -19 1 -23 -4 -22 -30z"/>
<path d="M666 342 c7 -4 14 -18 17 -32 4 -21 4 -20 6 8 1 24 -3 32 -16 32 -12
0 -14 -3 -7 -8z"/>
<path d="M433 313 c9 -2 25 -2 35 0 9 3 1 5 -18 5 -19 0 -27 -2 -17 -5z"/>
</g>
</svg>
