<?xml version="1.0" standalone="no"?>
<!DOCTYPE svg PUBLIC "-//W3C//DTD SVG 20010904//EN"
 "http://www.w3.org/TR/2001/REC-SVG-20010904/DTD/svg10.dtd">
<svg version="1.0" xmlns="http://www.w3.org/2000/svg"
 width="325.000000pt" height="327.000000pt" viewBox="0 0 325.000000 327.000000"
 preserveAspectRatio="xMidYMid meet">

<g transform="translate(0.000000,327.000000) scale(0.100000,-0.100000)"
fill="#000000" stroke="none">
<path d="M0 1635 l0 -1635 1625 0 1625 0 -2 1638 -3 1637 -5 -1418 -5 -1418
-28 29 c-24 25 -28 39 -33 113 -4 46 -16 116 -27 154 -11 39 -20 85 -21 103
-1 21 -12 45 -33 68 -17 19 -34 42 -37 51 -3 8 -15 17 -26 20 -15 4 -20 14
-20 39 0 22 -6 37 -18 43 -28 15 -102 166 -102 209 0 20 -6 64 -14 97 -8 33
-17 83 -21 110 -9 68 -78 241 -124 312 -20 32 -58 76 -83 98 -59 52 -166 106
-222 112 -43 5 -45 4 -68 -33 -14 -22 -27 -47 -31 -56 -7 -19 -27 -25 -27 -7
0 5 4 8 9 5 18 -11 19 52 3 105 -23 70 -39 99 -57 99 -8 0 -15 9 -15 20 0 13
-7 20 -20 20 -24 0 -24 -3 0 45 15 30 17 41 7 47 -6 4 3 5 22 1 25 -4 32 -3
27 5 -5 9 11 12 56 12 43 0 83 8 123 23 l60 23 47 95 c26 51 48 103 50 113 3
21 -63 75 -92 76 -37 0 -60 30 -60 76 0 24 -4 44 -10 44 -5 0 -10 6 -10 13 0
19 -86 40 -177 42 -52 1 -88 7 -98 15 -13 11 -20 11 -33 2 -10 -7 -26 -16 -37
-21 -11 -5 -30 -19 -43 -31 -22 -21 -66 -25 -68 -5 -4 25 -17 55 -25 55 -5 0
-9 7 -9 15 0 8 -12 17 -27 21 -31 6 -135 55 -144 67 -6 9 -110 29 -154 30 -16
0 -51 -7 -77 -17 -35 -14 -46 -23 -43 -36 4 -19 -29 -30 -91 -30 -20 0 -42 -8
-52 -18 -23 -23 -37 -101 -22 -116 5 -5 10 -45 10 -87 0 -75 1 -78 34 -107 43
-38 123 -75 206 -96 36 -10 80 -22 97 -27 39 -12 101 -14 133 -4 15 5 20 4 16
-4 -5 -8 0 -8 18 1 14 6 26 15 26 20 0 5 5 6 10 3 6 -3 10 -1 10 5 0 21 75
130 89 130 8 0 12 -3 9 -6 -3 -3 8 -20 25 -37 41 -41 51 -65 68 -156 8 -48 21
-83 36 -101 27 -32 29 -57 8 -87 -14 -19 -13 -26 10 -75 25 -54 35 -99 15 -68
-8 13 -10 12 -10 -2 0 -22 -14 -23 -46 -2 -33 22 -93 22 -127 0 -25 -17 -26
-20 -12 -36 8 -9 15 -19 15 -22 0 -7 -137 -27 -175 -25 -16 1 -52 -2 -78 -6
-41 -6 -48 -4 -45 9 3 16 102 54 141 54 9 0 17 5 17 10 0 15 -83 11 -104 -5
-11 -8 -26 -15 -34 -15 -22 0 -131 -41 -130 -49 3 -17 -23 -61 -37 -61 -8 0
-15 -4 -15 -10 0 -5 -7 -10 -17 -10 -9 0 -31 -11 -48 -24 -18 -14 -44 -28 -57
-31 -34 -9 -115 28 -149 68 -17 20 -32 28 -43 24 -12 -5 -16 0 -17 16 -1 17
-2 18 -6 5 -2 -10 11 -51 31 -90 33 -70 104 -150 216 -247 65 -56 225 -149
290 -169 65 -19 133 -19 157 0 7 5 16 7 22 4 10 -6 25 23 16 32 -3 3 -5 0 -5
-7 0 -8 -7 -11 -15 -7 -9 3 -18 -1 -21 -9 -4 -8 -10 -12 -15 -9 -19 11 25 53
73 71 34 12 61 31 81 55 17 21 34 38 39 38 4 0 8 -25 8 -55 0 -35 4 -54 11
-53 6 2 19 -24 29 -58 10 -33 23 -70 29 -82 6 -12 9 -22 6 -22 -4 0 3 -13 14
-29 12 -16 21 -34 21 -41 0 -6 5 -8 10 -5 12 8 13 3 0 -29 l-9 -25 -27 22
c-14 12 -55 49 -91 82 -87 81 -128 104 -173 95 -19 -4 -29 -8 -22 -9 6 0 12
-5 12 -10 0 -6 -21 -11 -47 -13 -44 -3 -48 -5 -53 -33 -4 -16 -17 -50 -30 -74
l-22 -45 20 -17 c12 -9 18 -20 14 -24 -4 -5 -2 -5 4 -2 6 3 25 -7 42 -22 17
-16 33 -26 36 -23 3 3 6 0 6 -7 0 -7 4 -10 9 -7 5 4 7 -3 4 -14 -3 -11 0 -20
6 -20 6 0 11 -10 11 -22 1 -22 1 -22 12 -4 9 15 7 22 -8 33 -18 13 -8 19 12 5
24 -16 27 -81 3 -66 -13 7 -11 1 6 -32 8 -16 15 -51 15 -77 0 -27 4 -46 8 -43
5 3 9 -8 10 -24 0 -16 6 -38 12 -50 6 -11 8 -26 4 -32 -5 -7 -3 -8 6 -3 9 5
10 2 6 -11 -3 -11 -1 -35 5 -54 24 -79 69 -266 69 -285 -1 -20 -1 -20 -15 -1
-8 10 -12 23 -9 27 3 5 1 9 -3 9 -5 0 -26 34 -47 75 -21 41 -43 75 -48 75 -5
0 -5 -8 1 -18 5 -10 11 -45 13 -77 2 -33 6 -62 10 -65 3 -3 9 -17 13 -31 7
-29 -18 -64 -37 -53 -7 5 -9 0 -6 -14 4 -12 2 -22 -2 -22 -5 0 -11 14 -15 30
-4 17 -13 30 -21 30 -8 0 -14 11 -15 28 0 15 -5 36 -10 47 -9 19 -9 18 -5 -3
6 -30 -10 -18 -18 14 -4 15 -34 88 -67 163 -76 171 -82 185 -108 246 -12 28
-28 63 -36 78 -8 16 -12 34 -8 39 3 7 1 8 -5 4 -7 -4 -12 -2 -12 4 0 6 -34 79
-75 162 -41 83 -72 155 -68 161 3 5 2 7 -4 4 -9 -6 -17 9 -55 101 -7 17 -16
32 -19 32 -3 0 -11 18 -18 40 -7 22 -16 38 -21 35 -5 -3 -12 6 -16 20 -3 14
-12 29 -19 33 -7 4 -42 67 -79 139 -73 147 -111 272 -103 337 7 52 -10 136
-28 136 -7 0 -18 -14 -24 -31 -6 -17 -21 -42 -33 -54 -13 -13 -39 -42 -58 -65
-69 -83 -96 -108 -146 -134 -47 -25 -104 -70 -104 -82 0 -2 9 0 21 6 38 21 30
3 -17 -39 -26 -22 -41 -41 -33 -41 12 0 12 -2 0 -9 -8 -5 -19 -7 -26 -5 -15 6
-92 -62 -82 -72 4 -4 13 -2 19 4 16 16 28 15 28 -3 0 -19 -56 -21 -63 -2 -3 6
-6 2 -6 -10 -1 -15 -11 -25 -36 -33 -19 -6 -38 -18 -43 -26 -4 -8 -22 -16 -40
-17 -33 -2 -46 -17 -14 -17 11 0 8 -5 -12 -15 -38 -20 -45 -19 -39 5 3 13 0
20 -8 20 -21 -1 -48 -24 -47 -41 3 -44 -3 -56 -24 -54 -13 1 -24 9 -26 18 -2
9 -8 17 -14 17 -5 0 -8 -7 -4 -15 3 -8 1 -15 -5 -15 -6 0 -7 -4 -4 -10 3 -6
-1 -7 -9 -4 -9 3 -16 13 -16 20 0 12 -4 12 -24 -1 -20 -13 -26 -14 -37 -2 -18
17 -71 16 -77 -1 -3 -10 -7 -10 -18 -1 -11 9 -14 8 -14 -2 0 -11 -2 -11 -10 1
-6 9 -10 354 -10 923 0 598 -3 907 -10 907 -7 0 -10 -552 -10 -1635z m1692
1143 c-9 -9 -15 -9 -24 0 -9 9 -7 12 12 12 19 0 21 -3 12 -12z m-182 -48 c9
-17 8 -20 -7 -20 -14 0 -18 -9 -19 -36 -1 -20 -7 -40 -14 -44 -23 -14 0 -30
41 -28 26 1 44 -4 50 -13 7 -12 9 -12 10 1 1 8 1 21 0 28 -1 7 5 22 14 34 8
13 15 17 15 10 0 -7 5 -10 10 -7 6 4 8 15 5 25 -8 24 52 51 66 29 5 -8 7 -20
4 -27 -3 -8 -5 -41 -5 -73 0 -53 -2 -60 -18 -55 -15 5 -18 -1 -18 -49 0 -45 3
-55 17 -55 10 0 19 -5 21 -11 3 -8 9 -7 18 3 13 12 72 38 88 38 9 0 -10 -55
-21 -62 -18 -12 -56 -9 -80 4 -37 21 -91 38 -78 25 17 -17 13 -27 -8 -27 -22
0 -40 20 -19 21 10 0 10 2 0 6 -6 2 -10 9 -7 14 4 5 -1 6 -9 3 -9 -3 -13 -11
-9 -18 4 -6 -4 -4 -17 5 -14 9 -25 22 -25 28 0 14 -26 32 -37 25 -5 -3 -8 -2
-7 3 3 19 -2 27 -10 15 -7 -12 -14 -11 -40 2 -38 20 -42 45 -20 129 8 30 16
39 39 44 16 3 27 10 24 15 -6 10 13 38 27 38 5 0 13 -9 19 -20z m520 -59 c0
-10 -30 -83 -37 -91 -2 -2 -8 2 -13 10 -11 17 -1 72 14 82 15 10 36 10 36 -1z
m350 -81 c0 -5 -2 -10 -4 -10 -3 0 -8 5 -11 10 -3 6 -1 10 4 10 6 0 11 -4 11
-10z m40 -19 c0 -10 -7 -21 -15 -25 -10 -4 -15 1 -15 15 0 11 5 17 10 14 6 -3
10 -1 10 4 0 6 2 11 5 11 3 0 5 -9 5 -19z m91 -4 c35 -24 42 -55 18 -83 -9
-11 -15 -10 -34 2 -13 9 -34 14 -46 12 -15 -2 -24 4 -30 20 -5 13 -5 22 1 22
6 0 10 11 10 25 0 33 34 34 81 2z m-151 -34 c0 -13 -3 -13 -15 -3 -8 7 -12 16
-9 21 8 13 24 1 24 -18z m-460 -43 c-6 -12 -14 -19 -17 -17 -2 3 1 15 7 27 6
12 14 19 17 17 2 -3 -1 -15 -7 -27z m628 -40 c18 0 14 -29 -12 -86 -27 -58
-55 -73 -123 -66 -31 3 -42 9 -47 24 -5 23 20 64 46 73 9 3 19 17 22 30 6 24
39 36 81 29 11 -2 26 -4 33 -4z m-447 -487 c30 -18 40 -37 14 -27 -8 4 -15 10
-15 15 0 5 -11 7 -25 3 -19 -5 -25 -2 -25 10 0 21 15 20 51 -1z m-401 -143
c19 -19 73 -50 101 -58 l34 -10 -37 -1 c-20 -1 -40 -6 -43 -12 -7 -10 -18 -9
-102 7 -21 4 -33 2 -33 -5 0 -20 -28 -12 -35 10 -7 20 15 53 55 85 13 11 40 4
60 -16z m380 16 c0 -2 -7 -6 -15 -10 -8 -3 -15 -1 -15 4 0 6 7 10 15 10 8 0
15 -2 15 -4z m30 -41 c0 -8 -4 -15 -10 -15 -5 0 -7 -7 -4 -15 8 -20 -20 -20
-36 1 -11 13 -10 16 8 21 12 3 22 9 22 14 0 5 5 9 10 9 6 0 10 -7 10 -15z
m-207 -168 c62 2 71 -2 31 -17 -14 -6 -22 -14 -19 -20 4 -6 -8 -10 -28 -10
-19 0 -47 -6 -63 -14 -33 -17 -123 -11 -105 7 5 5 7 15 5 22 -3 7 0 17 7 21
21 13 83 22 99 15 8 -3 41 -5 73 -4z m-1618 -217 c-3 -5 -11 -10 -16 -10 -6 0
-7 5 -4 10 3 6 11 10 16 10 6 0 7 -4 4 -10z m5 -30 c0 -5 -5 -10 -11 -10 -5 0
-7 5 -4 10 3 6 8 10 11 10 2 0 4 -4 4 -10z m1707 -112 c-3 -8 -6 -5 -6 6 -1
11 2 17 5 13 3 -3 4 -12 1 -19z m50 -115 c-3 -10 -5 -2 -5 17 0 19 2 27 5 18
2 -10 2 -26 0 -35z m171 -48 c6 8 12 19 12 25 0 12 10 13 27 2 14 -9 36 -63
28 -70 -3 -3 -5 1 -5 9 -1 8 -7 1 -14 -16 -10 -25 -10 -39 5 -90 9 -33 22 -73
29 -90 7 -16 16 -50 20 -74 7 -39 6 -42 -6 -26 -8 10 -12 28 -9 39 3 12 2 15
-1 9 -9 -19 -26 -16 -23 5 4 21 -28 82 -41 82 -6 0 -3 -11 5 -24 24 -36 -2
-46 -29 -11 -13 16 -27 26 -32 22 -5 -3 -11 3 -12 14 -4 43 -6 49 -14 49 -4 0
-8 6 -8 14 0 7 -7 19 -15 26 -9 7 -13 15 -10 18 3 3 -1 12 -9 21 -18 20 -46
105 -45 134 0 20 1 21 8 3 7 -19 8 -18 15 5 6 23 8 22 59 -33 44 -48 54 -55
65 -43z m59 -87 c-3 -8 -6 -5 -6 6 -1 11 2 17 5 13 3 -3 4 -12 1 -19z m20 -40
c-3 -7 -5 -2 -5 12 0 14 2 19 5 13 2 -7 2 -19 0 -25z m20 -20 c-3 -7 -5 -2 -5
12 0 14 2 19 5 13 2 -7 2 -19 0 -25z m-100 -183 c-9 -8 -28 -14 -44 -14 l-28
2 28 4 c15 3 33 13 40 24 6 10 13 15 15 9 2 -5 -3 -17 -11 -25z m63 -219 c0
-2 -8 -10 -17 -17 -16 -13 -17 -12 -4 4 13 16 21 21 21 13z m-310 -272 c0 -8
-5 -12 -10 -9 -6 4 -8 11 -5 16 9 14 15 11 15 -7z m1184 -196 c48 -50 50 -53
27 -56 -16 -3 -32 5 -48 22 -13 14 -42 35 -63 46 -50 25 -51 40 -3 40 31 0 44
-8 87 -52z"/>
<path d="M1631 2666 c-7 -8 -8 -17 -3 -20 6 -3 13 1 16 10 9 23 2 28 -13 10z"/>
<path d="M1440 2648 c0 -17 2 -18 15 -8 8 7 15 14 15 15 0 2 -7 5 -15 9 -10 4
-15 -1 -15 -16z"/>
<path d="M1626 2604 c-8 -21 -1 -28 19 -20 9 3 15 11 13 18 -7 19 -25 20 -32
2z"/>
<path d="M1578 2513 c7 -3 16 -2 19 1 4 3 -2 6 -13 5 -11 0 -14 -3 -6 -6z"/>
<path d="M2237 1104 c4 -12 3 -15 -5 -10 -8 5 -12 -1 -12 -15 0 -18 2 -19 15
-9 17 14 20 36 5 45 -6 4 -7 -1 -3 -11z"/>
<path d="M2203 1035 c-16 -17 -17 -35 -3 -35 6 0 10 7 10 15 0 8 5 15 10 15 6
0 10 5 10 10 0 14 -13 12 -27 -5z"/>
<path d="M2200 950 c0 -5 7 -10 16 -10 8 0 12 5 9 10 -3 6 -10 10 -16 10 -5 0
-9 -4 -9 -10z"/>
<path d="M1270 3258 c0 -6 -6 -19 -14 -27 -8 -9 -17 -34 -20 -56 -3 -22 -3
-34 0 -27 4 8 30 38 59 68 l54 54 -40 0 c-23 0 -39 -5 -39 -12z"/>
<path d="M1880 3260 c58 -3 93 -7 78 -8 -14 -1 -35 -5 -45 -9 -14 -6 -11 -9
17 -14 l35 -6 -32 -2 c-25 -1 -33 -5 -33 -20 0 -27 -11 -52 -20 -46 -4 3 -13
-8 -18 -25 -6 -17 -7 -32 -2 -35 5 -3 7 -11 4 -18 -2 -7 9 -20 26 -30 25 -15
30 -24 31 -60 0 -23 3 -36 6 -29 3 8 16 -3 34 -28 29 -39 30 -40 92 -40 51 0
66 -4 80 -21 16 -18 47 -20 65 -4 10 9 13 85 4 85 -16 0 -30 55 -37 149 -4 46
-9 89 -12 96 -2 7 4 15 14 18 14 4 12 5 -7 7 l-25 2 25 8 c25 8 25 8 2 9 -51
2 -9 18 53 20 52 2 71 -2 94 -18 36 -26 36 -26 36 4 l0 25 -285 -2 c-196 -1
-252 -4 -180 -8z m75 -60 c-3 -5 -13 -10 -21 -10 -8 0 -14 5 -14 10 0 6 9 10
21 10 11 0 17 -4 14 -10z m158 -97 c-7 -2 -19 -2 -25 0 -7 3 -2 5 12 5 14 0
19 -2 13 -5z m-195 -30 c2 -8 -5 -13 -17 -13 -12 0 -21 6 -21 16 0 18 31 15
38 -3z m202 -13 c0 -5 -9 -10 -20 -10 -11 0 -20 5 -20 10 0 6 9 10 20 10 11 0
20 -4 20 -10z"/>
<path d="M1880 3020 c0 -5 7 -10 15 -10 8 0 15 5 15 10 0 6 -7 10 -15 10 -8 0
-15 -4 -15 -10z"/>
<path d="M1092 2470 c0 -14 2 -19 5 -12 2 6 2 18 0 25 -3 6 -5 1 -5 -13z"/>
<path d="M1070 2430 c0 -5 0 -12 0 -15 0 -3 3 -5 6 -4 4 0 11 -5 16 -13 7 -9
8 -8 4 5 -3 10 -6 23 -6 28 0 5 -4 9 -10 9 -5 0 -10 -4 -10 -10z"/>
<path d="M1755 2298 c-16 -12 -34 -29 -39 -37 -5 -7 -23 -28 -41 -45 -41 -40
-59 -72 -44 -81 6 -4 17 2 25 14 9 12 20 19 25 15 6 -3 9 1 7 9 -5 23 13 25
26 2 26 -46 86 -74 86 -40 0 10 12 15 38 17 36 1 36 1 5 5 -18 2 -41 -1 -53
-7 -29 -16 -60 3 -60 38 0 46 11 66 52 100 29 23 35 32 22 32 -11 0 -32 -10
-49 -22z"/>
<path d="M2076 2131 c-3 -5 -21 -18 -39 -29 -31 -18 -38 -18 -73 -6 -22 8 -42
10 -48 4 -5 -5 11 -11 38 -15 25 -4 43 -11 40 -16 -10 -16 13 -9 36 11 13 11
30 20 40 20 17 0 40 18 40 32 0 11 -27 10 -34 -1z"/>
<path d="M1582 2107 c-7 -8 -7 -18 -2 -27 5 -8 10 -12 12 -10 24 37 27 50 14
50 -7 0 -18 -6 -24 -13z"/>
<path d="M1542 2047 c-26 -27 -29 -50 -6 -45 22 4 45 40 35 56 -5 9 -13 6 -29
-11z"/>
<path d="M1506 1974 c-3 -9 -2 -23 4 -32 8 -14 9 -12 10 10 0 14 6 29 13 31 7
4 6 6 -4 6 -9 1 -20 -6 -23 -15z"/>
<path d="M575 1680 c-3 -5 1 -10 10 -10 9 0 13 5 10 10 -3 6 -8 10 -10 10 -2
0 -7 -4 -10 -10z"/>
<path d="M280 1489 c0 -5 5 -7 10 -4 6 3 10 8 10 11 0 2 -4 4 -10 4 -5 0 -10
-5 -10 -11z"/>
</g>
</svg>
